#N canvas 482 22 798 856 10;
#X obj -117 144 loadbang;
#X obj 71 50 until;
#X obj 70 75 f;
#X obj 101 76 + 1;
#X obj 70 100 + 1;
#X obj 70 126 t f f;
#X obj 121 296 select;
#X obj 121 323 f;
#X obj 122 405 t f f;
#X obj 212 559 select;
#X obj 214 598 f;
#X obj 203 699 list prepend;
#X obj 272 660 list prepend;
#X obj 181 726 list;
#X obj 214 627 t b f;
#X obj 70 1 inlet startLoop;
#X text 181 88 loop through all chord profiles;
#X text 155 163 look at the the first chord;
#X text 188 289 is it the same as the second chord in the buffer?;
#X text 276 506 is it the same as the third chord in the buffer?;
#X text 253 599 if so \, we have a match! let's add the index to the
list.;
#X text 412 675 make sure the list is clear;
#X obj 70 23 t b b;
#X obj 181 785 outlet indiciesList;
#X obj 22 1 bng 15 250 50 0 empty empty empty 17 7 0 10 -262144 -1
-1;
#X obj 102 686 delay 1;
#X obj 154 268 inlet secondChord;
#X obj 248 524 inlet thirdChord;
#X msg -117 175 read predict2gram.mtx;
#X obj 140 39 send clearIndiciesList_2nd;
#X obj 115 125 send bangResults_2nd;
#X obj 70 221 iemmatrix/matrix predict2gram.mtx;
#X msg 70 163 element \$1 1;
#X msg 123 432 element \$1 2;
#X text 215 432 if so let's look at chord 2;
#X obj 102 661 r bangResults_2nd;
#X obj 404 696 r clearIndiciesList_2nd;
#X obj -4 477 iemmatrix/matrix predict2gram.mtx;
#X obj 132 77 % 575;
#X obj 98 100 sel 575;
#X connect 0 0 28 0;
#X connect 1 0 2 0;
#X connect 2 0 3 0;
#X connect 2 0 4 0;
#X connect 3 0 38 0;
#X connect 3 0 39 0;
#X connect 4 0 5 0;
#X connect 5 0 32 0;
#X connect 5 1 7 1;
#X connect 6 0 7 0;
#X connect 7 0 8 0;
#X connect 8 0 33 0;
#X connect 8 1 10 1;
#X connect 9 0 10 0;
#X connect 10 0 14 0;
#X connect 11 0 13 1;
#X connect 11 0 12 1;
#X connect 12 0 11 1;
#X connect 13 0 23 0;
#X connect 14 0 11 0;
#X connect 14 1 12 0;
#X connect 15 0 22 0;
#X connect 22 0 1 0;
#X connect 22 1 29 0;
#X connect 24 0 22 0;
#X connect 25 0 13 0;
#X connect 26 0 6 1;
#X connect 27 0 9 1;
#X connect 28 0 31 0;
#X connect 28 0 37 0;
#X connect 31 0 6 0;
#X connect 32 0 31 0;
#X connect 33 0 37 0;
#X connect 35 0 25 0;
#X connect 36 0 12 1;
#X connect 36 0 11 1;
#X connect 37 0 9 0;
#X connect 38 0 2 1;
#X connect 39 0 1 1;
#X connect 39 0 30 0;
