#N canvas 0 22 1425 800 10;
#X floatatom 236 231 5 0 0 0 - - -;
#X msg 236 250 row \$1;
#X msg 274 289 read prior.mtx;
#X obj 274 320 iemmatrix/matrix prior.mtx;
#X obj 274 367 s c1;
#X obj 301 385 s c2;
#X obj 328 405 s c3;
#X obj 185 588 iemmatrix/matrix noteWeight.mtx;
#X msg 309 556 read noteWeight.mtx;
#X obj 185 527 pack f f;
#X floatatom 76 588 5 0 0 0 - - -;
#X msg 185 556 element \$2 \$1;
#X obj 104 70 until;
#X obj 104 94 f;
#X obj 135 95 + 1;
#X obj 104 16 bng 15 250 50 0 empty empty empty 17 7 0 10 -262144 -1
-1;
#X obj 104 238 until;
#X obj 104 264 f;
#X obj 135 265 + 1;
#X obj 104 181 t b f;
#X obj 166 266 % 12;
#X obj 148 291 sel 12;
#X obj 131 205 + 1;
#X obj 170 683 *;
#X obj 169 742 f;
#X obj 202 740 +;
#X obj 168 719 bng 15 250 50 0 empty empty empty 17 7 0 10 -262144
-1 -1;
#X obj 104 316 s note_dim;
#X obj 76 549 r note_dim;
#X obj 185 475 r note_dim;
#X obj 185 499 + 1;
#X text 139 15 start nested for loop;
#X obj 860 5 loadbang;
#X obj 135 770 f;
#X msg 210 693 0;
#X obj 148 345 s finish_inner_prod;
#X obj 43 686 r finish_inner_prod;
#X obj 447 616 tabread hist2;
#X obj 556 590 iemmatrix/matrix noteWeight.mtx;
#X msg 680 558 read noteWeight.mtx;
#X obj 556 529 pack f f;
#X floatatom 447 588 5 0 0 0 - - -;
#X msg 556 558 element \$2 \$1;
#X obj 541 685 *;
#X obj 541 736 f;
#X obj 581 735 +;
#X obj 541 714 bng 15 250 50 0 empty empty empty 17 7 0 10 -262144
-1 -1;
#X obj 447 549 r note_dim;
#X obj 556 477 r note_dim;
#X obj 556 501 + 1;
#X obj 526 773 f;
#X msg 581 688 0;
#X obj 417 686 r finish_inner_prod;
#X obj 926 587 iemmatrix/matrix noteWeight.mtx;
#X msg 1050 555 read noteWeight.mtx;
#X obj 926 526 pack f f;
#X floatatom 840 518 5 0 0 0 - - -;
#X msg 926 555 element \$2 \$1;
#X obj 911 644 *;
#X obj 911 691 f;
#X obj 944 689 +;
#X obj 911 670 bng 15 250 50 0 empty empty empty 17 7 0 10 -262144
-1 -1;
#X obj 840 479 r note_dim;
#X obj 926 474 r note_dim;
#X obj 926 498 + 1;
#X obj 896 731 f;
#X msg 959 661 0;
#X obj 788 692 r finish_inner_prod;
#X obj 266 497 r c1;
#X obj 637 499 r c2;
#X obj 1007 496 r c3;
#X obj 274 344 unpack 0 0 0 0;
#X obj 355 427 s prior;
#X obj 911 758 r prior;
#X obj 896 780 *;
#X obj 791 830 *;
#X obj 744 874 *;
#X text 165 766 inner_prod1;
#X text 574 772 inner_prod2;
#X text 927 731 inner_prod3;
#X obj 744 948 list prepend;
#X obj 813 921 list prepend;
#X obj 744 899 t b f;
#X obj 723 978 list;
#X obj 723 1001 minmax-arg;
#X obj 152 71 s clear_list;
#X obj 882 893 r clear_list;
#X obj 598 899 r finish_all_inner_prod;
#X obj 135 157 s finish_all_inner_prod;
#X obj 598 925 delay 1;
#X msg 778 1109 row \$1;
#X msg 825 1109 read prior.mtx;
#X obj 825 1140 iemmatrix/matrix prior.mtx;
#X obj 825 1165 unpack 0 0 0 0;
#X floatatom 806 1217 5 0 0 0 - - -;
#X floatatom 851 1219 5 0 0 0 - - -;
#X floatatom 895 1219 5 0 0 0 - - -;
#X obj 76 614 tabread hist1;
#X obj 840 555 tabread hist3;
#X floatatom 135 800 5 0 0 0 - - -;
#X floatatom 526 801 5 0 0 0 - - -;
#X floatatom 751 1053 5 0 0 0 - - -;
#X obj 166 96 % 139;
#X obj 135 122 sel 139;
#X text 798 1235 the unheard chords of the first three measures;
#X floatatom 896 810 5 0 0 0 - - -;
#X obj 104 43 t b b;
#X obj 825 1190 outlet;
#X obj 864 1191 outlet;
#X obj 919 1190 outlet;
#X obj 41 19 inlet;
#X obj 965 1170 outlet;
#X obj 780 1025 t f b;
#X obj 778 1083 f;
#X obj 807 1047 del 1;
#X connect 0 0 1 0;
#X connect 1 0 3 0;
#X connect 2 0 3 0;
#X connect 3 0 71 0;
#X connect 7 0 23 1;
#X connect 8 0 7 0;
#X connect 9 0 11 0;
#X connect 10 0 97 0;
#X connect 11 0 7 0;
#X connect 12 0 13 0;
#X connect 13 0 14 0;
#X connect 13 0 19 0;
#X connect 14 0 102 0;
#X connect 14 0 103 0;
#X connect 15 0 106 0;
#X connect 16 0 17 0;
#X connect 17 0 18 0;
#X connect 17 0 27 0;
#X connect 18 0 20 0;
#X connect 18 0 21 0;
#X connect 19 0 16 0;
#X connect 19 1 22 0;
#X connect 20 0 17 1;
#X connect 21 0 16 1;
#X connect 21 0 35 0;
#X connect 22 0 0 0;
#X connect 23 0 25 0;
#X connect 23 0 26 0;
#X connect 24 0 25 1;
#X connect 24 0 33 1;
#X connect 25 0 24 1;
#X connect 26 0 24 0;
#X connect 28 0 10 0;
#X connect 29 0 30 0;
#X connect 30 0 9 0;
#X connect 32 0 8 0;
#X connect 32 0 39 0;
#X connect 32 0 54 0;
#X connect 32 0 2 0;
#X connect 33 0 34 0;
#X connect 33 0 76 0;
#X connect 33 0 99 0;
#X connect 34 0 25 0;
#X connect 34 0 25 1;
#X connect 36 0 33 0;
#X connect 37 0 43 0;
#X connect 38 0 43 1;
#X connect 39 0 38 0;
#X connect 40 0 42 0;
#X connect 41 0 37 0;
#X connect 42 0 38 0;
#X connect 43 0 45 0;
#X connect 43 0 46 0;
#X connect 44 0 45 1;
#X connect 44 0 50 1;
#X connect 45 0 44 1;
#X connect 46 0 44 0;
#X connect 47 0 41 0;
#X connect 48 0 49 0;
#X connect 49 0 40 0;
#X connect 50 0 51 0;
#X connect 50 0 75 0;
#X connect 50 0 100 0;
#X connect 51 0 45 0;
#X connect 51 0 45 1;
#X connect 52 0 50 0;
#X connect 53 0 58 1;
#X connect 54 0 53 0;
#X connect 55 0 57 0;
#X connect 56 0 98 0;
#X connect 57 0 53 0;
#X connect 58 0 60 0;
#X connect 58 0 61 0;
#X connect 59 0 60 1;
#X connect 59 0 65 1;
#X connect 60 0 59 1;
#X connect 61 0 59 0;
#X connect 62 0 56 0;
#X connect 63 0 64 0;
#X connect 64 0 55 0;
#X connect 65 0 66 0;
#X connect 65 0 74 0;
#X connect 66 0 60 0;
#X connect 66 0 60 1;
#X connect 67 0 65 0;
#X connect 68 0 9 1;
#X connect 69 0 40 1;
#X connect 70 0 55 1;
#X connect 71 0 4 0;
#X connect 71 1 5 0;
#X connect 71 2 6 0;
#X connect 71 3 72 0;
#X connect 73 0 74 1;
#X connect 74 0 105 0;
#X connect 74 0 75 1;
#X connect 75 0 76 1;
#X connect 76 0 82 0;
#X connect 80 0 83 1;
#X connect 80 0 81 1;
#X connect 81 0 80 1;
#X connect 82 0 80 0;
#X connect 82 1 81 0;
#X connect 83 0 84 0;
#X connect 84 1 101 0;
#X connect 84 2 112 0;
#X connect 86 0 81 1;
#X connect 86 0 80 1;
#X connect 87 0 89 0;
#X connect 89 0 83 0;
#X connect 90 0 92 0;
#X connect 91 0 92 0;
#X connect 92 0 93 0;
#X connect 92 0 111 0;
#X connect 93 0 107 0;
#X connect 93 1 108 0;
#X connect 93 2 109 0;
#X connect 97 0 23 0;
#X connect 98 0 58 0;
#X connect 102 0 13 1;
#X connect 103 0 12 1;
#X connect 103 0 88 0;
#X connect 106 0 12 0;
#X connect 106 1 85 0;
#X connect 110 0 106 0;
#X connect 112 0 113 1;
#X connect 112 1 114 0;
#X connect 113 0 90 0;
#X connect 114 0 113 0;
