#N canvas 73 68 429 541 10;
#X obj 63 349 vsl 73 73 0 1 0 0 fenv_amount empty empty 0 -9 0 10 -204800
-4032 -1 0 1;
#X obj 136 349 vsl 73 73 0 1 0 0 aenv_amount empty empty 0 -9 0 10
-204800 -4032 -1 0 1;
#X obj 0 -6 cnv 15 425 110 empty empty OSC1 0 12 1 14 -208256 -1 0
;
#X obj 1 32 hradio 60 1 1 3 octave1 poct_1 Octave_1 0 -8 1 12 -4032
-262144 -99865 1;
#X obj 181 32 vradio 10 1 0 6 ratio1 pratio_1 Ratio 2 -8 1 20 -204800
-1 -1 2;
#X obj 213 34 hsl 128 58 0 20 0 0 index1 empty Index 80 -8 1 20 -232576
-159808 -1 0 1;
#X obj 364 14 vsl 50 75 40 100 0 1 fm1_volume empty Volume 0 -9 1 12
-262144 -4032 -1 7400 1;
#X obj 0 105 cnv 15 425 100 empty empty OSC2 0 12 1 14 -208256 -1 0
;
#X obj 1 143 hradio 60 1 0 3 octave2 poct_2 Octave_2 0 -8 1 12 -4032
-262144 -99865 1;
#X obj 124 113 hsl 55 30 -100 0 0 1 detune empty Detune -2 -8 1 12
-204800 -4032 -128992 5400 1;
#X obj 181 143 vradio 10 1 0 6 ratio2 pratio_2 Ratio 2 -8 1 20 -204800
-1 -1 4;
#X obj 213 145 hsl 128 58 0 20 0 0 index2 index2_slider Index 80 -8
1 20 -232576 -159808 -1 0 1;
#X obj 364 125 vsl 50 75 40 100 0 1 fm2_volume empty Volume 0 -9 1
12 -262144 -4032 -1 7400 1;
#X obj 0 206 cnv 15 425 325 empty empty empty 20 12 0 14 -262130 -66577
0;
#X obj 6 244 hradio 73 1 0 3 env_number empty Envelopes 0 -8 1 20 -262144
-4032 -1 0;
#X obj 6 319 vsl 54 128 1 2000 0 0 attack a_slider empty 0 -9 0 10
-262144 -4032 -1 0 1;
#X obj 60 319 vsl 54 128 1 2000 0 0 decay d_slider empty 0 -9 0 10
-262144 -4032 -1 0 1;
#X obj 114 319 vsl 55 128 0 100 0 0 sustain s_slider empty 0 -9 0 10
-262144 -4032 -1 0 1;
#X obj 169 319 vsl 56 128 1 2000 0 0 release r_slider empty 0 -9 0
10 -262144 -4032 -1 0 1;
#X obj 371 246 vsl 40 144 0 20 0 0 fenv_amount empty env._amt 0 -9
1 10 -204800 -4032 -1 0 1;
#X obj 241 244 hsl 128 75 50 800 0 1 f_frequency empty Filter 0 -8
1 20 -204800 -4032 -1 12700 1;
#X obj 241 318 hsl 128 75 1 25 0 0 f_q empty empty -2 -8 1 20 -204800
-4032 -1 0 1;
#X obj 238 445 bng 25 250 50 0 harpsichord empty Harpsichord 30 12
1 14 -261234 -257985 -1;
#N canvas 808 164 556 481 presets 0;
#X obj 11 69 bng 15 250 50 0 empty harpsichord harpsichord 17 7 0 10
-262144 -1 -1;
#X obj 146 69 bng 15 250 50 0 empty dream dream 17 7 0 10 -262144 -1
-1;
#X obj 277 60 bng 15 250 50 0 empty hollow hollow 17 7 0 10 -262144
-1 -1;
#X obj 404 57 bng 15 250 50 0 empty organ organ 17 7 0 10 -262144 -1
-1;
#X msg 12 88 \; fenv_amount 0 \; fma 13 \; fmd 756 \; fms 56 \; fmr
50 \; fa 0 \; fd 0 \; fs 0 \; fr 0 \; aa 13 \; ad 2000 \; as 58 \;
ar 536 \; octave2 2 \; fm2_volume 90 \; fm1_volume 100 \; ratio2 2
\; octave1 1 \; ratio1 2 \; index1 1.65 \; index2 0.47 \; f_frequency
760 \; f_q 1.4 \; detune 0 \; poct_1 1 \; poct_2 2 \; pratio_1 2 \;
pratio_2 2;
#X msg 145 89 \; octave1 0 \; octave2 1 \; fma 1071 \; fmd 1 \; fms
100 \; fmr 1244 \; fenv_amount 0 \; fa 0 \; fd 0 \; fs 0 \; fr 0 \;
aa 1 \; ad 662 \; as 75.6 \; ar 1244 \; ratio1 1 \; ratio2 0 \; index1
1.574 \; index2 0.787 \; f_frequency 280 \; f_q 5.9 \; fm1_volume 100
\; fm2_volume 100 \; detune -37 \; poct_1 0 \; poct_2 1 \; pratio_1
1 \; pratio_2 0;
#X msg 276 89 \; octave1 1 \; octave2 1 \; fma 1 \; fmd 378 \; fms
50 \; fmr 316 \; fenv_amount 3.35 \; fa 1 \; fd 379 \; fs 53 \; fr
1700 \; aa 49 \; ad 1118 \; as 83 \; ar 772.2 \; ratio1 0 \; ratio2
3 \; index1 1.102 \; index2 2.362 \; f_frequency 717 \; f_q 16.3 \;
fm1_volume 100 \; fm2_volume 100 \; detune 0 \; poct_1 1 \; poct_2
1 \; pratio_1 0 \; pratio_2 3;
#X msg 405 90 \; octave1 1 \; octave2 1 \; fma 64 \; fmd 0 \; fms 98
\; fmr 457 \; fenv_amount 0 \; fa 0 \; fd 0 \; fs 0 \; fr 0 \; aa 111
\; ad 33 \; as 98 \; ar 457 \; ratio1 2 \; ratio2 4 \; index1 0.157
\; index2 0.787 \; f_frequency 700 \; f_q 2.7 \; fm1_volume 100 \;
fm2_volume 100 \; detune 0 \; poct_1 1 \; poct_2 1 \; pratio_1 2 \;
pratio_2 4;
#X connect 0 0 4 0;
#X connect 1 0 5 0;
#X connect 2 0 6 0;
#X connect 3 0 7 0;
#X coords 0 0 1 1 85 60 0;
#X restore 56 472 pd presets;
#N canvas 34 81 277 318 levels 0;
#X obj 0 1 cnv 15 260 60 empty empty FM_Envelope 10 12 1 14 -261682
-66577 0;
#X floatatom 20 37 5 0 0 2 attack fma -;
#X floatatom 77 37 5 0 0 2 decay fmd -;
#X floatatom 131 38 5 0 0 2 sustain fms -;
#X floatatom 188 39 5 0 0 2 release fmr -;
#X obj 0 62 cnv 15 260 60 empty empty Filter_Envelope 10 12 1 14 -262130
-66577 0;
#X floatatom 21 98 5 0 0 2 attack fa -;
#X floatatom 76 98 5 0 0 2 decay fd -;
#X floatatom 131 98 5 0 0 2 sustain fs -;
#X floatatom 189 98 5 0 0 2 release fr -;
#X obj 0 123 cnv 15 260 60 empty empty Amp_Envelope 10 12 1 14 -204786
-66577 0;
#X floatatom 22 158 5 0 0 2 attack aa -;
#X floatatom 78 158 5 0 0 2 decay ad -;
#X floatatom 131 159 5 0 0 2 sustain as -;
#X floatatom 190 160 5 0 0 2 release ar -;
#X obj 1 184 cnv 15 130 60 empty empty Index 10 12 1 14 -204800 -66577
0;
#X floatatom 23 220 5 0 0 2 OSC1 index1 -;
#X floatatom 78 220 5 0 0 2 OSC2 index2 -;
#X obj 130 184 cnv 15 130 60 empty empty Detune 10 12 1 14 -203904
-66577 0;
#X obj 0 244 cnv 15 260 60 empty empty Filter 10 12 1 14 -232576 -66577
0;
#X floatatom 21 279 5 0 0 2 Env._Amt fenv_amount -;
#X floatatom 105 279 5 0 0 2 Frequency f_frequency -;
#X floatatom 194 280 5 0 0 2 Q f_q -;
#X floatatom 166 220 5 0 0 2 Detune detune -;
#X coords 0 0 1 1 85 60 0;
#X restore 344 406 pd levels;
#X obj 238 416 bng 25 250 50 0 dream empty Dream 30 12 1 14 -261234
-257985 -1;
#X obj 238 474 bng 25 250 50 0 hollow empty Hollow 30 12 1 14 -261234
-257985 -1;
#X obj 238 503 bng 25 250 50 0 organ empty Organ 30 12 1 14 -261234
-257985 -1;
#X text 236 395 Presets;
#N canvas 311 226 369 423 guts 0;
#X obj 21 386 dac~;
#X obj 20 196 catch~ sum;
#X obj 115 258 dbtorms~;
#X obj 21 278 *~;
#X obj 292 225 loadbang;
#X obj 114 140 r volume;
#X obj 115 213 pack f 100;
#X obj 115 234 vline~ 0;
#N canvas 91 150 489 467 env_select 0;
#X obj 165 400 unpack f f f f;
#X floatatom 268 68 5 0 0 0 - env_number -;
#X floatatom 165 422 5 0 0 0 - - fma;
#X floatatom 197 436 5 0 0 0 - - fmd;
#X floatatom 227 422 5 0 0 0 - - fms;
#X floatatom 260 436 5 0 0 0 - - fmr;
#X obj 237 362 unpack f f f f;
#X floatatom 237 384 5 0 0 0 - - fa;
#X floatatom 269 398 5 0 0 0 - - fd;
#X floatatom 299 384 5 0 0 0 - - fs;
#X floatatom 332 398 5 0 0 0 - - fr;
#X obj 310 324 unpack f f f f;
#X floatatom 310 346 5 0 0 0 - - aa;
#X floatatom 342 360 5 0 0 0 - - ad;
#X floatatom 372 346 5 0 0 0 - - as;
#X floatatom 406 362 5 0 0 0 - - ar;
#X obj 269 101 sel 0 1 2;
#X floatatom 65 77 5 0 0 0 - attack -;
#X floatatom 93 98 5 0 0 0 - decay -;
#X floatatom 118 76 5 0 0 0 - sustain -;
#X floatatom 145 96 5 0 0 0 - release -;
#X obj 65 140 pack f f f f;
#X obj 28 120 b;
#X obj 164 354 spigot 0;
#X obj 237 328 spigot 0;
#X obj 309 269 spigot 0;
#X obj 216 332 tgl 15 0 empty empty empty 17 7 0 10 -262144 -1 -1 1
1;
#X obj 289 298 tgl 15 0 empty empty empty 17 7 0 10 -262144 -1 -1 0
1;
#X obj 361 248 tgl 15 0 empty empty empty 17 7 0 10 -262144 -1 -1 0
2;
#X obj 401 137 t 0 0;
#X obj 182 135 t 0 0;
#X obj 275 147 t 0 0;
#X obj 217 30 loadbang;
#X connect 0 0 2 0;
#X connect 0 1 3 0;
#X connect 0 2 4 0;
#X connect 0 3 5 0;
#X connect 1 0 16 0;
#X connect 6 0 7 0;
#X connect 6 1 8 0;
#X connect 6 2 9 0;
#X connect 6 3 10 0;
#X connect 11 0 12 0;
#X connect 11 1 13 0;
#X connect 11 2 14 0;
#X connect 11 3 15 0;
#X connect 16 0 26 0;
#X connect 16 0 30 0;
#X connect 16 1 27 0;
#X connect 16 1 31 0;
#X connect 16 2 28 0;
#X connect 16 2 29 0;
#X connect 17 0 21 0;
#X connect 17 0 22 0;
#X connect 18 0 21 1;
#X connect 18 0 22 0;
#X connect 19 0 21 2;
#X connect 19 0 22 0;
#X connect 20 0 21 3;
#X connect 20 0 22 0;
#X connect 21 0 23 0;
#X connect 21 0 24 0;
#X connect 21 0 25 0;
#X connect 22 0 21 0;
#X connect 23 0 0 0;
#X connect 24 0 6 0;
#X connect 25 0 11 0;
#X connect 26 0 23 1;
#X connect 27 0 24 1;
#X connect 28 0 25 1;
#X connect 29 0 26 0;
#X connect 29 1 27 0;
#X connect 30 0 27 0;
#X connect 30 1 28 0;
#X connect 31 0 26 0;
#X connect 31 1 28 0;
#X connect 32 0 26 0;
#X restore 254 26 pd env_select;
#N canvas 285 251 632 345 midi_voice_route 0;
#X obj 31 86 poly 6 1;
#X obj 31 129 pack f f f;
#X obj 32 164 route 1 2 3 4 5 6;
#X obj 32 229 outlet;
#X obj 50 209 outlet;
#X obj 71 256 outlet;
#X obj 89 236 outlet;
#X obj 109 213 outlet;
#X obj 127 193 outlet;
#X obj 291 217 r midictl7;
#X obj 290 253 * 60;
#X obj 291 279 + 40;
#X obj 291 309 s volume;
#X obj 417 218 r midictl1;
#X obj 417 255 * 30;
#X obj 418 302 s index2;
#X obj 487 304 s index2_slider;
#X obj 270 178 r ctl91;
#X obj 394 181 r ctl93;
#X obj 126 74 print;
#X obj 293 137 loadbang;
#X floatatom 348 167 5 0 0 0 - - -;
#X msg 291 159 107;
#X obj 34 23 notein 1;
#X obj 32 58 pack f f;
#X obj 106 25 / 127;
#X connect 0 0 1 0;
#X connect 0 1 1 1;
#X connect 0 2 1 2;
#X connect 1 0 2 0;
#X connect 2 0 3 0;
#X connect 2 1 4 0;
#X connect 2 2 5 0;
#X connect 2 3 6 0;
#X connect 2 4 7 0;
#X connect 2 5 8 0;
#X connect 9 0 10 0;
#X connect 10 0 11 0;
#X connect 11 0 12 0;
#X connect 13 0 14 0;
#X connect 14 0 15 0;
#X connect 14 0 16 0;
#X connect 17 0 10 0;
#X connect 18 0 14 0;
#X connect 20 0 22 0;
#X connect 21 0 12 0;
#X connect 22 0 12 0;
#X connect 23 0 24 0;
#X connect 23 1 25 0;
#X connect 24 0 0 0;
#X connect 25 0 24 1;
#X restore 19 19 pd midi_voice_route;
#N canvas 110 298 194 342 voice~ 0;
#N canvas 783 64 475 751 FM1 0;
#X obj 111 27 inlet;
#X obj 112 59 unpack f f;
#X obj 113 252 mtof;
#X obj 114 613 +~;
#X floatatom 162 360 5 0 0 0 - index1 -;
#X obj 187 481 *~;
#X floatatom 281 364 5 0 0 2 ratio1 ratio1 -;
#X obj 282 407 t b f;
#X obj 282 430 *;
#X obj 281 471 osc~;
#X obj 187 513 *~;
#X obj 205 299 adsr-mc;
#X obj 114 635 osc~;
#X obj 114 658 *~;
#X obj 185 629 dbtorms~;
#X floatatom 122 126 5 0 0 0 - octave1 -;
#X obj 113 278 *;
#X floatatom 185 604 5 0 0 0 - fm1_volume -;
#X obj 114 699 outlet~;
#X obj 282 384 + 1;
#X obj 224 224 r fma;
#X obj 231 242 r fmd;
#X obj 242 260 r fms;
#X obj 252 278 r fmr;
#X obj 213 122 loadbang;
#X msg 214 155 100;
#X obj 187 568 *~;
#X obj 342 478 dbtorms~;
#X obj 338 160 sel 0;
#X obj 341 207 * 40;
#X obj 342 238 + 80;
#X obj 342 433 sig~;
#X obj 205 330 *~ 0.01;
#X obj 187 386 *~;
#X obj 121 153 sel 0 1 2;
#X msg 122 176 0.5;
#X obj 154 252 float;
#X msg 140 197 1;
#X msg 162 217 2;
#X obj 219 351 loadbang;
#X obj 203 417 env~;
#X floatatom 203 444 5 0 0 0 - - -;
#X connect 0 0 1 0;
#X connect 1 0 2 0;
#X connect 1 1 11 0;
#X connect 1 1 28 0;
#X connect 2 0 16 0;
#X connect 3 0 12 0;
#X connect 4 0 33 0;
#X connect 5 0 10 0;
#X connect 6 0 19 0;
#X connect 7 0 8 0;
#X connect 7 1 8 1;
#X connect 8 0 5 1;
#X connect 8 0 9 0;
#X connect 9 0 10 1;
#X connect 10 0 26 0;
#X connect 11 0 32 0;
#X connect 12 0 13 0;
#X connect 13 0 18 0;
#X connect 14 0 13 1;
#X connect 15 0 34 0;
#X connect 16 0 3 0;
#X connect 16 0 8 0;
#X connect 17 0 14 0;
#X connect 19 0 7 0;
#X connect 20 0 11 2;
#X connect 21 0 11 3;
#X connect 22 0 11 4;
#X connect 23 0 11 5;
#X connect 24 0 25 0;
#X connect 25 0 11 1;
#X connect 26 0 3 1;
#X connect 27 0 26 1;
#X connect 28 1 29 0;
#X connect 29 0 30 0;
#X connect 30 0 31 0;
#X connect 31 0 27 0;
#X connect 32 0 33 1;
#X connect 32 0 40 0;
#X connect 33 0 5 0;
#X connect 34 0 35 0;
#X connect 34 1 37 0;
#X connect 34 2 38 0;
#X connect 35 0 36 0;
#X connect 36 0 16 1;
#X connect 37 0 36 0;
#X connect 38 0 36 0;
#X connect 39 0 19 0;
#X connect 40 0 41 0;
#X restore 48 66 pd FM1;
#X obj 48 24 inlet;
#N canvas 58 25 451 789 FM2 0;
#X obj 229 415 pack f 300;
#X floatatom 229 368 5 0 0 0 - index2 -;
#X obj 229 439 vline~;
#X obj 229 471 *~;
#X floatatom 337 338 5 0 0 2 ratio2 ratio2 -;
#X obj 337 397 t b f;
#X obj 337 420 *;
#X obj 336 461 osc~;
#X obj 229 503 *~;
#X obj 194 623 +~;
#X obj 194 654 osc~;
#X obj 194 680 *~;
#X obj 279 650 dbtorms~;
#X floatatom 277 108 5 0 0 0 - octave2 -;
#X obj 194 282 *;
#X obj 193 108 r detune;
#X obj 194 141 / 100;
#X obj 194 162 t b f;
#X obj 194 193 +;
#X obj 193 223 mtof;
#X floatatom 278 624 5 0 0 0 - fm2_volume -;
#X obj 338 366 + 1;
#X obj 211 570 *~;
#X obj 39 26 inlet;
#X obj 38 74 unpack f f;
#X obj 108 505 dbtorms~;
#X obj 104 327 sel 0;
#X obj 107 374 * 40;
#X obj 108 405 + 80;
#X obj 108 469 sig~;
#X obj 194 734 outlet~;
#X obj 276 131 sel 0 1 2;
#X obj 309 230 float;
#X msg 295 175 1;
#X msg 317 195 2;
#X msg 275 157 0.5;
#X floatatom 156 132 5 0 0 0 - - -;
#X connect 0 0 2 0;
#X connect 1 0 0 0;
#X connect 2 0 3 0;
#X connect 3 0 8 0;
#X connect 4 0 21 0;
#X connect 5 0 6 0;
#X connect 5 1 6 1;
#X connect 6 0 3 1;
#X connect 6 0 7 0;
#X connect 7 0 8 1;
#X connect 8 0 22 1;
#X connect 9 0 10 0;
#X connect 10 0 11 0;
#X connect 11 0 30 0;
#X connect 12 0 11 1;
#X connect 13 0 31 0;
#X connect 14 0 9 0;
#X connect 14 0 6 0;
#X connect 15 0 16 0;
#X connect 15 0 36 0;
#X connect 16 0 17 0;
#X connect 17 0 18 0;
#X connect 17 1 18 1;
#X connect 18 0 19 0;
#X connect 19 0 14 0;
#X connect 20 0 12 0;
#X connect 21 0 5 0;
#X connect 22 0 9 1;
#X connect 23 0 24 0;
#X connect 24 0 18 0;
#X connect 24 1 26 0;
#X connect 25 0 22 0;
#X connect 26 1 27 0;
#X connect 27 0 28 0;
#X connect 28 0 29 0;
#X connect 29 0 25 0;
#X connect 31 0 35 0;
#X connect 31 1 33 0;
#X connect 31 2 34 0;
#X connect 32 0 14 1;
#X connect 33 0 32 0;
#X connect 34 0 32 0;
#X connect 35 0 32 0;
#X restore 100 66 pd FM2;
#X obj 48 104 +~;
#X obj 48 137 *~ 0.5;
#X obj 48 291 throw~ sum;
#N canvas 97 247 474 442 filter/adsr 0;
#X obj 202 144 adsr-mc;
#X obj 24 132 inlet~;
#X obj 24 265 vcf~ 1;
#X obj 24 305 vcf~ 1;
#X obj 95 209 *~;
#X floatatom 95 174 5 0 0 0 - fenv_amount -;
#X floatatom 103 261 5 0 0 0 - f_q -;
#X obj 24 366 outlet~;
#X obj 102 93 inlet;
#X obj 24 341 *~;
#X obj 272 295 adsr-mc;
#X obj 220 66 r fa;
#X obj 248 118 r fr;
#X obj 239 102 r fs;
#X obj 228 84 r fd;
#X obj 318 256 r ar;
#X obj 309 240 r as;
#X obj 298 222 r ad;
#X obj 290 204 r aa;
#X obj 43 237 +~;
#X obj 103 113 unpack f f;
#X floatatom 44 166 5 0 0 0 - f_frequency -;
#X obj 282 15 loadbang;
#X msg 282 40 100;
#X obj 272 323 dbtorms~;
#X connect 0 0 4 1;
#X connect 1 0 2 0;
#X connect 2 0 3 0;
#X connect 3 0 9 0;
#X connect 4 0 19 1;
#X connect 5 0 4 0;
#X connect 6 0 2 2;
#X connect 6 0 3 2;
#X connect 8 0 20 0;
#X connect 9 0 7 0;
#X connect 10 0 24 0;
#X connect 11 0 0 2;
#X connect 12 0 0 5;
#X connect 13 0 0 4;
#X connect 14 0 0 3;
#X connect 15 0 10 5;
#X connect 16 0 10 4;
#X connect 17 0 10 3;
#X connect 18 0 10 2;
#X connect 19 0 2 1;
#X connect 19 0 3 1;
#X connect 20 1 0 0;
#X connect 20 1 10 0;
#X connect 21 0 19 0;
#X connect 22 0 23 0;
#X connect 23 0 0 1;
#X connect 23 0 10 1;
#X connect 24 0 9 1;
#X restore 48 201 pd filter/adsr;
#X connect 0 0 3 0;
#X connect 1 0 0 0;
#X connect 1 0 2 0;
#X connect 1 0 6 1;
#X connect 2 0 3 1;
#X connect 3 0 4 0;
#X connect 4 0 6 0;
#X connect 6 0 5 0;
#X restore 18 144 pd voice~;
#N canvas 60 438 194 342 voice~ 0;
#N canvas 783 64 475 751 FM1 0;
#X obj 111 27 inlet;
#X obj 112 59 unpack f f;
#X obj 113 252 mtof;
#X obj 114 613 +~;
#X floatatom 162 360 5 0 0 0 - index1 -;
#X obj 187 481 *~;
#X floatatom 281 364 5 0 0 2 ratio1 ratio1 -;
#X obj 282 407 t b f;
#X obj 282 430 *;
#X obj 281 471 osc~;
#X obj 187 513 *~;
#X obj 205 299 adsr-mc;
#X obj 114 635 osc~;
#X obj 114 658 *~;
#X obj 185 629 dbtorms~;
#X floatatom 122 126 5 0 0 0 - octave1 -;
#X obj 113 278 *;
#X floatatom 185 604 5 0 0 0 - fm1_volume -;
#X obj 114 699 outlet~;
#X obj 282 384 + 1;
#X obj 224 224 r fma;
#X obj 231 242 r fmd;
#X obj 242 260 r fms;
#X obj 252 278 r fmr;
#X obj 213 122 loadbang;
#X msg 214 155 100;
#X obj 187 568 *~;
#X obj 342 478 dbtorms~;
#X obj 338 160 sel 0;
#X obj 341 207 * 40;
#X obj 342 238 + 80;
#X obj 342 433 sig~;
#X obj 205 330 *~ 0.01;
#X obj 187 386 *~;
#X obj 121 153 sel 0 1 2;
#X msg 122 176 0.5;
#X obj 154 252 float;
#X msg 140 197 1;
#X msg 162 217 2;
#X obj 219 351 loadbang;
#X obj 203 417 env~;
#X floatatom 203 444 5 0 0 0 - - -;
#X connect 0 0 1 0;
#X connect 1 0 2 0;
#X connect 1 1 11 0;
#X connect 1 1 28 0;
#X connect 2 0 16 0;
#X connect 3 0 12 0;
#X connect 4 0 33 0;
#X connect 5 0 10 0;
#X connect 6 0 19 0;
#X connect 7 0 8 0;
#X connect 7 1 8 1;
#X connect 8 0 5 1;
#X connect 8 0 9 0;
#X connect 9 0 10 1;
#X connect 10 0 26 0;
#X connect 11 0 32 0;
#X connect 12 0 13 0;
#X connect 13 0 18 0;
#X connect 14 0 13 1;
#X connect 15 0 34 0;
#X connect 16 0 3 0;
#X connect 16 0 8 0;
#X connect 17 0 14 0;
#X connect 19 0 7 0;
#X connect 20 0 11 2;
#X connect 21 0 11 3;
#X connect 22 0 11 4;
#X connect 23 0 11 5;
#X connect 24 0 25 0;
#X connect 25 0 11 1;
#X connect 26 0 3 1;
#X connect 27 0 26 1;
#X connect 28 1 29 0;
#X connect 29 0 30 0;
#X connect 30 0 31 0;
#X connect 31 0 27 0;
#X connect 32 0 33 1;
#X connect 32 0 40 0;
#X connect 33 0 5 0;
#X connect 34 0 35 0;
#X connect 34 1 37 0;
#X connect 34 2 38 0;
#X connect 35 0 36 0;
#X connect 36 0 16 1;
#X connect 37 0 36 0;
#X connect 38 0 36 0;
#X connect 39 0 19 0;
#X connect 40 0 41 0;
#X restore 48 66 pd FM1;
#X obj 48 24 inlet;
#N canvas 58 25 451 789 FM2 0;
#X obj 229 415 pack f 300;
#X floatatom 229 368 5 0 0 0 - index2 -;
#X obj 229 439 vline~;
#X obj 229 471 *~;
#X floatatom 337 338 5 0 0 2 ratio2 ratio2 -;
#X obj 337 397 t b f;
#X obj 337 420 *;
#X obj 336 461 osc~;
#X obj 229 503 *~;
#X obj 194 623 +~;
#X obj 194 654 osc~;
#X obj 194 680 *~;
#X obj 279 650 dbtorms~;
#X floatatom 277 108 5 0 0 0 - octave2 -;
#X obj 194 282 *;
#X obj 193 108 r detune;
#X obj 194 141 / 100;
#X obj 194 162 t b f;
#X obj 194 193 +;
#X obj 193 223 mtof;
#X floatatom 278 624 5 0 0 0 - fm2_volume -;
#X obj 338 366 + 1;
#X obj 211 570 *~;
#X obj 39 26 inlet;
#X obj 38 74 unpack f f;
#X obj 108 505 dbtorms~;
#X obj 104 327 sel 0;
#X obj 107 374 * 40;
#X obj 108 405 + 80;
#X obj 108 469 sig~;
#X obj 194 734 outlet~;
#X obj 276 131 sel 0 1 2;
#X obj 309 230 float;
#X msg 295 175 1;
#X msg 317 195 2;
#X msg 275 157 0.5;
#X floatatom 156 132 5 0 0 0 - - -;
#X connect 0 0 2 0;
#X connect 1 0 0 0;
#X connect 2 0 3 0;
#X connect 3 0 8 0;
#X connect 4 0 21 0;
#X connect 5 0 6 0;
#X connect 5 1 6 1;
#X connect 6 0 3 1;
#X connect 6 0 7 0;
#X connect 7 0 8 1;
#X connect 8 0 22 1;
#X connect 9 0 10 0;
#X connect 10 0 11 0;
#X connect 11 0 30 0;
#X connect 12 0 11 1;
#X connect 13 0 31 0;
#X connect 14 0 9 0;
#X connect 14 0 6 0;
#X connect 15 0 16 0;
#X connect 15 0 36 0;
#X connect 16 0 17 0;
#X connect 17 0 18 0;
#X connect 17 1 18 1;
#X connect 18 0 19 0;
#X connect 19 0 14 0;
#X connect 20 0 12 0;
#X connect 21 0 5 0;
#X connect 22 0 9 1;
#X connect 23 0 24 0;
#X connect 24 0 18 0;
#X connect 24 1 26 0;
#X connect 25 0 22 0;
#X connect 26 1 27 0;
#X connect 27 0 28 0;
#X connect 28 0 29 0;
#X connect 29 0 25 0;
#X connect 31 0 35 0;
#X connect 31 1 33 0;
#X connect 31 2 34 0;
#X connect 32 0 14 1;
#X connect 33 0 32 0;
#X connect 34 0 32 0;
#X connect 35 0 32 0;
#X restore 100 66 pd FM2;
#X obj 48 104 +~;
#X obj 48 137 *~ 0.5;
#X obj 48 291 throw~ sum;
#N canvas 97 247 474 442 filter/adsr 0;
#X obj 202 144 adsr-mc;
#X obj 24 132 inlet~;
#X obj 24 265 vcf~ 1;
#X obj 24 305 vcf~ 1;
#X obj 95 209 *~;
#X floatatom 95 174 5 0 0 0 - fenv_amount -;
#X floatatom 103 261 5 0 0 0 - f_q -;
#X obj 24 366 outlet~;
#X obj 102 93 inlet;
#X obj 24 341 *~;
#X obj 272 295 adsr-mc;
#X obj 220 66 r fa;
#X obj 248 118 r fr;
#X obj 239 102 r fs;
#X obj 228 84 r fd;
#X obj 318 256 r ar;
#X obj 309 240 r as;
#X obj 298 222 r ad;
#X obj 290 204 r aa;
#X obj 43 237 +~;
#X obj 103 113 unpack f f;
#X floatatom 44 166 5 0 0 0 - f_frequency -;
#X obj 282 15 loadbang;
#X msg 282 40 100;
#X obj 272 323 dbtorms~;
#X connect 0 0 4 1;
#X connect 1 0 2 0;
#X connect 2 0 3 0;
#X connect 3 0 9 0;
#X connect 4 0 19 1;
#X connect 5 0 4 0;
#X connect 6 0 2 2;
#X connect 6 0 3 2;
#X connect 8 0 20 0;
#X connect 9 0 7 0;
#X connect 10 0 24 0;
#X connect 11 0 0 2;
#X connect 12 0 0 5;
#X connect 13 0 0 4;
#X connect 14 0 0 3;
#X connect 15 0 10 5;
#X connect 16 0 10 4;
#X connect 17 0 10 3;
#X connect 18 0 10 2;
#X connect 19 0 2 1;
#X connect 19 0 3 1;
#X connect 20 1 0 0;
#X connect 20 1 10 0;
#X connect 21 0 19 0;
#X connect 22 0 23 0;
#X connect 23 0 0 1;
#X connect 23 0 10 1;
#X connect 24 0 9 1;
#X restore 48 201 pd filter/adsr;
#X connect 0 0 3 0;
#X connect 1 0 0 0;
#X connect 1 0 2 0;
#X connect 1 0 6 1;
#X connect 2 0 3 1;
#X connect 3 0 4 0;
#X connect 4 0 6 0;
#X connect 6 0 5 0;
#X restore 45 124 pd voice~;
#N canvas 60 438 194 342 voice~ 0;
#N canvas 783 64 475 751 FM1 0;
#X obj 111 27 inlet;
#X obj 112 59 unpack f f;
#X obj 113 252 mtof;
#X obj 114 613 +~;
#X floatatom 162 360 5 0 0 0 - index1 -;
#X obj 187 481 *~;
#X floatatom 281 364 5 0 0 2 ratio1 ratio1 -;
#X obj 282 407 t b f;
#X obj 282 430 *;
#X obj 281 471 osc~;
#X obj 187 513 *~;
#X obj 205 299 adsr-mc;
#X obj 114 635 osc~;
#X obj 114 658 *~;
#X obj 185 629 dbtorms~;
#X floatatom 122 126 5 0 0 0 - octave1 -;
#X obj 113 278 *;
#X floatatom 185 604 5 0 0 0 - fm1_volume -;
#X obj 114 699 outlet~;
#X obj 282 384 + 1;
#X obj 224 224 r fma;
#X obj 231 242 r fmd;
#X obj 242 260 r fms;
#X obj 252 278 r fmr;
#X obj 213 122 loadbang;
#X msg 214 155 100;
#X obj 187 568 *~;
#X obj 342 478 dbtorms~;
#X obj 338 160 sel 0;
#X obj 341 207 * 40;
#X obj 342 238 + 80;
#X obj 342 433 sig~;
#X obj 205 330 *~ 0.01;
#X obj 187 386 *~;
#X obj 121 153 sel 0 1 2;
#X msg 122 176 0.5;
#X obj 154 252 float;
#X msg 140 197 1;
#X msg 162 217 2;
#X obj 219 351 loadbang;
#X obj 203 417 env~;
#X floatatom 203 444 5 0 0 0 - - -;
#X connect 0 0 1 0;
#X connect 1 0 2 0;
#X connect 1 1 11 0;
#X connect 1 1 28 0;
#X connect 2 0 16 0;
#X connect 3 0 12 0;
#X connect 4 0 33 0;
#X connect 5 0 10 0;
#X connect 6 0 19 0;
#X connect 7 0 8 0;
#X connect 7 1 8 1;
#X connect 8 0 5 1;
#X connect 8 0 9 0;
#X connect 9 0 10 1;
#X connect 10 0 26 0;
#X connect 11 0 32 0;
#X connect 12 0 13 0;
#X connect 13 0 18 0;
#X connect 14 0 13 1;
#X connect 15 0 34 0;
#X connect 16 0 3 0;
#X connect 16 0 8 0;
#X connect 17 0 14 0;
#X connect 19 0 7 0;
#X connect 20 0 11 2;
#X connect 21 0 11 3;
#X connect 22 0 11 4;
#X connect 23 0 11 5;
#X connect 24 0 25 0;
#X connect 25 0 11 1;
#X connect 26 0 3 1;
#X connect 27 0 26 1;
#X connect 28 1 29 0;
#X connect 29 0 30 0;
#X connect 30 0 31 0;
#X connect 31 0 27 0;
#X connect 32 0 33 1;
#X connect 32 0 40 0;
#X connect 33 0 5 0;
#X connect 34 0 35 0;
#X connect 34 1 37 0;
#X connect 34 2 38 0;
#X connect 35 0 36 0;
#X connect 36 0 16 1;
#X connect 37 0 36 0;
#X connect 38 0 36 0;
#X connect 39 0 19 0;
#X connect 40 0 41 0;
#X restore 48 66 pd FM1;
#X obj 48 24 inlet;
#N canvas 58 25 451 789 FM2 0;
#X obj 229 415 pack f 300;
#X floatatom 229 368 5 0 0 0 - index2 -;
#X obj 229 439 vline~;
#X obj 229 471 *~;
#X floatatom 337 338 5 0 0 2 ratio2 ratio2 -;
#X obj 337 397 t b f;
#X obj 337 420 *;
#X obj 336 461 osc~;
#X obj 229 503 *~;
#X obj 194 623 +~;
#X obj 194 654 osc~;
#X obj 194 680 *~;
#X obj 279 650 dbtorms~;
#X floatatom 277 108 5 0 0 0 - octave2 -;
#X obj 194 282 *;
#X obj 193 108 r detune;
#X obj 194 141 / 100;
#X obj 194 162 t b f;
#X obj 194 193 +;
#X obj 193 223 mtof;
#X floatatom 278 624 5 0 0 0 - fm2_volume -;
#X obj 338 366 + 1;
#X obj 211 570 *~;
#X obj 39 26 inlet;
#X obj 38 74 unpack f f;
#X obj 108 505 dbtorms~;
#X obj 104 327 sel 0;
#X obj 107 374 * 40;
#X obj 108 405 + 80;
#X obj 108 469 sig~;
#X obj 194 734 outlet~;
#X obj 276 131 sel 0 1 2;
#X obj 309 230 float;
#X msg 295 175 1;
#X msg 317 195 2;
#X msg 275 157 0.5;
#X floatatom 156 132 5 0 0 0 - - -;
#X connect 0 0 2 0;
#X connect 1 0 0 0;
#X connect 2 0 3 0;
#X connect 3 0 8 0;
#X connect 4 0 21 0;
#X connect 5 0 6 0;
#X connect 5 1 6 1;
#X connect 6 0 3 1;
#X connect 6 0 7 0;
#X connect 7 0 8 1;
#X connect 8 0 22 1;
#X connect 9 0 10 0;
#X connect 10 0 11 0;
#X connect 11 0 30 0;
#X connect 12 0 11 1;
#X connect 13 0 31 0;
#X connect 14 0 9 0;
#X connect 14 0 6 0;
#X connect 15 0 16 0;
#X connect 15 0 36 0;
#X connect 16 0 17 0;
#X connect 17 0 18 0;
#X connect 17 1 18 1;
#X connect 18 0 19 0;
#X connect 19 0 14 0;
#X connect 20 0 12 0;
#X connect 21 0 5 0;
#X connect 22 0 9 1;
#X connect 23 0 24 0;
#X connect 24 0 18 0;
#X connect 24 1 26 0;
#X connect 25 0 22 0;
#X connect 26 1 27 0;
#X connect 27 0 28 0;
#X connect 28 0 29 0;
#X connect 29 0 25 0;
#X connect 31 0 35 0;
#X connect 31 1 33 0;
#X connect 31 2 34 0;
#X connect 32 0 14 1;
#X connect 33 0 32 0;
#X connect 34 0 32 0;
#X connect 35 0 32 0;
#X restore 100 66 pd FM2;
#X obj 48 104 +~;
#X obj 48 137 *~ 0.5;
#X obj 48 291 throw~ sum;
#N canvas 97 247 474 442 filter/adsr 0;
#X obj 202 144 adsr-mc;
#X obj 24 132 inlet~;
#X obj 24 265 vcf~ 1;
#X obj 24 305 vcf~ 1;
#X obj 95 209 *~;
#X floatatom 95 174 5 0 0 0 - fenv_amount -;
#X floatatom 103 261 5 0 0 0 - f_q -;
#X obj 24 366 outlet~;
#X obj 102 93 inlet;
#X obj 24 341 *~;
#X obj 272 295 adsr-mc;
#X obj 220 66 r fa;
#X obj 248 118 r fr;
#X obj 239 102 r fs;
#X obj 228 84 r fd;
#X obj 318 256 r ar;
#X obj 309 240 r as;
#X obj 298 222 r ad;
#X obj 290 204 r aa;
#X obj 43 237 +~;
#X obj 103 113 unpack f f;
#X floatatom 44 166 5 0 0 0 - f_frequency -;
#X obj 282 15 loadbang;
#X msg 282 40 100;
#X obj 272 323 dbtorms~;
#X connect 0 0 4 1;
#X connect 1 0 2 0;
#X connect 2 0 3 0;
#X connect 3 0 9 0;
#X connect 4 0 19 1;
#X connect 5 0 4 0;
#X connect 6 0 2 2;
#X connect 6 0 3 2;
#X connect 8 0 20 0;
#X connect 9 0 7 0;
#X connect 10 0 24 0;
#X connect 11 0 0 2;
#X connect 12 0 0 5;
#X connect 13 0 0 4;
#X connect 14 0 0 3;
#X connect 15 0 10 5;
#X connect 16 0 10 4;
#X connect 17 0 10 3;
#X connect 18 0 10 2;
#X connect 19 0 2 1;
#X connect 19 0 3 1;
#X connect 20 1 0 0;
#X connect 20 1 10 0;
#X connect 21 0 19 0;
#X connect 22 0 23 0;
#X connect 23 0 0 1;
#X connect 23 0 10 1;
#X connect 24 0 9 1;
#X restore 48 201 pd filter/adsr;
#X connect 0 0 3 0;
#X connect 1 0 0 0;
#X connect 1 0 2 0;
#X connect 1 0 6 1;
#X connect 2 0 3 1;
#X connect 3 0 4 0;
#X connect 4 0 6 0;
#X connect 6 0 5 0;
#X restore 71 104 pd voice~;
#N canvas 60 438 194 342 voice~ 0;
#N canvas 783 64 475 751 FM1 0;
#X obj 111 27 inlet;
#X obj 112 59 unpack f f;
#X obj 113 252 mtof;
#X obj 114 613 +~;
#X floatatom 162 360 5 0 0 0 - index1 -;
#X obj 187 481 *~;
#X floatatom 281 364 5 0 0 2 ratio1 ratio1 -;
#X obj 282 407 t b f;
#X obj 282 430 *;
#X obj 281 471 osc~;
#X obj 187 513 *~;
#X obj 205 299 adsr-mc;
#X obj 114 635 osc~;
#X obj 114 658 *~;
#X obj 185 629 dbtorms~;
#X floatatom 122 126 5 0 0 0 - octave1 -;
#X obj 113 278 *;
#X floatatom 185 604 5 0 0 0 - fm1_volume -;
#X obj 114 699 outlet~;
#X obj 282 384 + 1;
#X obj 224 224 r fma;
#X obj 231 242 r fmd;
#X obj 242 260 r fms;
#X obj 252 278 r fmr;
#X obj 213 122 loadbang;
#X msg 214 155 100;
#X obj 187 568 *~;
#X obj 342 478 dbtorms~;
#X obj 338 160 sel 0;
#X obj 341 207 * 40;
#X obj 342 238 + 80;
#X obj 342 433 sig~;
#X obj 205 330 *~ 0.01;
#X obj 187 386 *~;
#X obj 121 153 sel 0 1 2;
#X msg 122 176 0.5;
#X obj 154 252 float;
#X msg 140 197 1;
#X msg 162 217 2;
#X obj 219 351 loadbang;
#X obj 203 417 env~;
#X floatatom 203 444 5 0 0 0 - - -;
#X connect 0 0 1 0;
#X connect 1 0 2 0;
#X connect 1 1 11 0;
#X connect 1 1 28 0;
#X connect 2 0 16 0;
#X connect 3 0 12 0;
#X connect 4 0 33 0;
#X connect 5 0 10 0;
#X connect 6 0 19 0;
#X connect 7 0 8 0;
#X connect 7 1 8 1;
#X connect 8 0 5 1;
#X connect 8 0 9 0;
#X connect 9 0 10 1;
#X connect 10 0 26 0;
#X connect 11 0 32 0;
#X connect 12 0 13 0;
#X connect 13 0 18 0;
#X connect 14 0 13 1;
#X connect 15 0 34 0;
#X connect 16 0 3 0;
#X connect 16 0 8 0;
#X connect 17 0 14 0;
#X connect 19 0 7 0;
#X connect 20 0 11 2;
#X connect 21 0 11 3;
#X connect 22 0 11 4;
#X connect 23 0 11 5;
#X connect 24 0 25 0;
#X connect 25 0 11 1;
#X connect 26 0 3 1;
#X connect 27 0 26 1;
#X connect 28 1 29 0;
#X connect 29 0 30 0;
#X connect 30 0 31 0;
#X connect 31 0 27 0;
#X connect 32 0 33 1;
#X connect 32 0 40 0;
#X connect 33 0 5 0;
#X connect 34 0 35 0;
#X connect 34 1 37 0;
#X connect 34 2 38 0;
#X connect 35 0 36 0;
#X connect 36 0 16 1;
#X connect 37 0 36 0;
#X connect 38 0 36 0;
#X connect 39 0 19 0;
#X connect 40 0 41 0;
#X restore 48 66 pd FM1;
#X obj 48 24 inlet;
#N canvas 58 25 451 789 FM2 0;
#X obj 229 415 pack f 300;
#X floatatom 229 368 5 0 0 0 - index2 -;
#X obj 229 439 vline~;
#X obj 229 471 *~;
#X floatatom 337 338 5 0 0 2 ratio2 ratio2 -;
#X obj 337 397 t b f;
#X obj 337 420 *;
#X obj 336 461 osc~;
#X obj 229 503 *~;
#X obj 194 623 +~;
#X obj 194 654 osc~;
#X obj 194 680 *~;
#X obj 279 650 dbtorms~;
#X floatatom 277 108 5 0 0 0 - octave2 -;
#X obj 194 282 *;
#X obj 193 108 r detune;
#X obj 194 141 / 100;
#X obj 194 162 t b f;
#X obj 194 193 +;
#X obj 193 223 mtof;
#X floatatom 278 624 5 0 0 0 - fm2_volume -;
#X obj 338 366 + 1;
#X obj 211 570 *~;
#X obj 39 26 inlet;
#X obj 38 74 unpack f f;
#X obj 108 505 dbtorms~;
#X obj 104 327 sel 0;
#X obj 107 374 * 40;
#X obj 108 405 + 80;
#X obj 108 469 sig~;
#X obj 194 734 outlet~;
#X obj 276 131 sel 0 1 2;
#X obj 309 230 float;
#X msg 295 175 1;
#X msg 317 195 2;
#X msg 275 157 0.5;
#X floatatom 156 132 5 0 0 0 - - -;
#X connect 0 0 2 0;
#X connect 1 0 0 0;
#X connect 2 0 3 0;
#X connect 3 0 8 0;
#X connect 4 0 21 0;
#X connect 5 0 6 0;
#X connect 5 1 6 1;
#X connect 6 0 3 1;
#X connect 6 0 7 0;
#X connect 7 0 8 1;
#X connect 8 0 22 1;
#X connect 9 0 10 0;
#X connect 10 0 11 0;
#X connect 11 0 30 0;
#X connect 12 0 11 1;
#X connect 13 0 31 0;
#X connect 14 0 9 0;
#X connect 14 0 6 0;
#X connect 15 0 16 0;
#X connect 15 0 36 0;
#X connect 16 0 17 0;
#X connect 17 0 18 0;
#X connect 17 1 18 1;
#X connect 18 0 19 0;
#X connect 19 0 14 0;
#X connect 20 0 12 0;
#X connect 21 0 5 0;
#X connect 22 0 9 1;
#X connect 23 0 24 0;
#X connect 24 0 18 0;
#X connect 24 1 26 0;
#X connect 25 0 22 0;
#X connect 26 1 27 0;
#X connect 27 0 28 0;
#X connect 28 0 29 0;
#X connect 29 0 25 0;
#X connect 31 0 35 0;
#X connect 31 1 33 0;
#X connect 31 2 34 0;
#X connect 32 0 14 1;
#X connect 33 0 32 0;
#X connect 34 0 32 0;
#X connect 35 0 32 0;
#X restore 100 66 pd FM2;
#X obj 48 104 +~;
#X obj 48 137 *~ 0.5;
#X obj 48 291 throw~ sum;
#N canvas 97 247 474 442 filter/adsr 0;
#X obj 202 144 adsr-mc;
#X obj 24 132 inlet~;
#X obj 24 265 vcf~ 1;
#X obj 24 305 vcf~ 1;
#X obj 95 209 *~;
#X floatatom 95 174 5 0 0 0 - fenv_amount -;
#X floatatom 103 261 5 0 0 0 - f_q -;
#X obj 24 366 outlet~;
#X obj 102 93 inlet;
#X obj 24 341 *~;
#X obj 272 295 adsr-mc;
#X obj 220 66 r fa;
#X obj 248 118 r fr;
#X obj 239 102 r fs;
#X obj 228 84 r fd;
#X obj 318 256 r ar;
#X obj 309 240 r as;
#X obj 298 222 r ad;
#X obj 290 204 r aa;
#X obj 43 237 +~;
#X obj 103 113 unpack f f;
#X floatatom 44 166 5 0 0 0 - f_frequency -;
#X obj 282 15 loadbang;
#X msg 282 40 100;
#X obj 272 323 dbtorms~;
#X connect 0 0 4 1;
#X connect 1 0 2 0;
#X connect 2 0 3 0;
#X connect 3 0 9 0;
#X connect 4 0 19 1;
#X connect 5 0 4 0;
#X connect 6 0 2 2;
#X connect 6 0 3 2;
#X connect 8 0 20 0;
#X connect 9 0 7 0;
#X connect 10 0 24 0;
#X connect 11 0 0 2;
#X connect 12 0 0 5;
#X connect 13 0 0 4;
#X connect 14 0 0 3;
#X connect 15 0 10 5;
#X connect 16 0 10 4;
#X connect 17 0 10 3;
#X connect 18 0 10 2;
#X connect 19 0 2 1;
#X connect 19 0 3 1;
#X connect 20 1 0 0;
#X connect 20 1 10 0;
#X connect 21 0 19 0;
#X connect 22 0 23 0;
#X connect 23 0 0 1;
#X connect 23 0 10 1;
#X connect 24 0 9 1;
#X restore 48 201 pd filter/adsr;
#X connect 0 0 3 0;
#X connect 1 0 0 0;
#X connect 1 0 2 0;
#X connect 1 0 6 1;
#X connect 2 0 3 1;
#X connect 3 0 4 0;
#X connect 4 0 6 0;
#X connect 6 0 5 0;
#X restore 96 84 pd voice~;
#N canvas 60 438 194 342 voice~ 0;
#N canvas 783 64 475 751 FM1 0;
#X obj 111 27 inlet;
#X obj 112 59 unpack f f;
#X obj 113 252 mtof;
#X obj 114 613 +~;
#X floatatom 162 360 5 0 0 0 - index1 -;
#X obj 187 481 *~;
#X floatatom 281 364 5 0 0 2 ratio1 ratio1 -;
#X obj 282 407 t b f;
#X obj 282 430 *;
#X obj 281 471 osc~;
#X obj 187 513 *~;
#X obj 205 299 adsr-mc;
#X obj 114 635 osc~;
#X obj 114 658 *~;
#X obj 185 629 dbtorms~;
#X floatatom 122 126 5 0 0 0 - octave1 -;
#X obj 113 278 *;
#X floatatom 185 604 5 0 0 0 - fm1_volume -;
#X obj 114 699 outlet~;
#X obj 282 384 + 1;
#X obj 224 224 r fma;
#X obj 231 242 r fmd;
#X obj 242 260 r fms;
#X obj 252 278 r fmr;
#X obj 213 122 loadbang;
#X msg 214 155 100;
#X obj 187 568 *~;
#X obj 342 478 dbtorms~;
#X obj 338 160 sel 0;
#X obj 341 207 * 40;
#X obj 342 238 + 80;
#X obj 342 433 sig~;
#X obj 205 330 *~ 0.01;
#X obj 187 386 *~;
#X obj 121 153 sel 0 1 2;
#X msg 122 176 0.5;
#X obj 154 252 float;
#X msg 140 197 1;
#X msg 162 217 2;
#X obj 219 351 loadbang;
#X obj 203 417 env~;
#X floatatom 203 444 5 0 0 0 - - -;
#X connect 0 0 1 0;
#X connect 1 0 2 0;
#X connect 1 1 11 0;
#X connect 1 1 28 0;
#X connect 2 0 16 0;
#X connect 3 0 12 0;
#X connect 4 0 33 0;
#X connect 5 0 10 0;
#X connect 6 0 19 0;
#X connect 7 0 8 0;
#X connect 7 1 8 1;
#X connect 8 0 5 1;
#X connect 8 0 9 0;
#X connect 9 0 10 1;
#X connect 10 0 26 0;
#X connect 11 0 32 0;
#X connect 12 0 13 0;
#X connect 13 0 18 0;
#X connect 14 0 13 1;
#X connect 15 0 34 0;
#X connect 16 0 3 0;
#X connect 16 0 8 0;
#X connect 17 0 14 0;
#X connect 19 0 7 0;
#X connect 20 0 11 2;
#X connect 21 0 11 3;
#X connect 22 0 11 4;
#X connect 23 0 11 5;
#X connect 24 0 25 0;
#X connect 25 0 11 1;
#X connect 26 0 3 1;
#X connect 27 0 26 1;
#X connect 28 1 29 0;
#X connect 29 0 30 0;
#X connect 30 0 31 0;
#X connect 31 0 27 0;
#X connect 32 0 33 1;
#X connect 32 0 40 0;
#X connect 33 0 5 0;
#X connect 34 0 35 0;
#X connect 34 1 37 0;
#X connect 34 2 38 0;
#X connect 35 0 36 0;
#X connect 36 0 16 1;
#X connect 37 0 36 0;
#X connect 38 0 36 0;
#X connect 39 0 19 0;
#X connect 40 0 41 0;
#X restore 48 66 pd FM1;
#X obj 48 24 inlet;
#N canvas 58 25 451 789 FM2 0;
#X obj 229 415 pack f 300;
#X floatatom 229 368 5 0 0 0 - index2 -;
#X obj 229 439 vline~;
#X obj 229 471 *~;
#X floatatom 337 338 5 0 0 2 ratio2 ratio2 -;
#X obj 337 397 t b f;
#X obj 337 420 *;
#X obj 336 461 osc~;
#X obj 229 503 *~;
#X obj 194 623 +~;
#X obj 194 654 osc~;
#X obj 194 680 *~;
#X obj 279 650 dbtorms~;
#X floatatom 277 108 5 0 0 0 - octave2 -;
#X obj 194 282 *;
#X obj 193 108 r detune;
#X obj 194 141 / 100;
#X obj 194 162 t b f;
#X obj 194 193 +;
#X obj 193 223 mtof;
#X floatatom 278 624 5 0 0 0 - fm2_volume -;
#X obj 338 366 + 1;
#X obj 211 570 *~;
#X obj 39 26 inlet;
#X obj 38 74 unpack f f;
#X obj 108 505 dbtorms~;
#X obj 104 327 sel 0;
#X obj 107 374 * 40;
#X obj 108 405 + 80;
#X obj 108 469 sig~;
#X obj 194 734 outlet~;
#X obj 276 131 sel 0 1 2;
#X obj 309 230 float;
#X msg 295 175 1;
#X msg 317 195 2;
#X msg 275 157 0.5;
#X floatatom 156 132 5 0 0 0 - - -;
#X connect 0 0 2 0;
#X connect 1 0 0 0;
#X connect 2 0 3 0;
#X connect 3 0 8 0;
#X connect 4 0 21 0;
#X connect 5 0 6 0;
#X connect 5 1 6 1;
#X connect 6 0 3 1;
#X connect 6 0 7 0;
#X connect 7 0 8 1;
#X connect 8 0 22 1;
#X connect 9 0 10 0;
#X connect 10 0 11 0;
#X connect 11 0 30 0;
#X connect 12 0 11 1;
#X connect 13 0 31 0;
#X connect 14 0 9 0;
#X connect 14 0 6 0;
#X connect 15 0 16 0;
#X connect 15 0 36 0;
#X connect 16 0 17 0;
#X connect 17 0 18 0;
#X connect 17 1 18 1;
#X connect 18 0 19 0;
#X connect 19 0 14 0;
#X connect 20 0 12 0;
#X connect 21 0 5 0;
#X connect 22 0 9 1;
#X connect 23 0 24 0;
#X connect 24 0 18 0;
#X connect 24 1 26 0;
#X connect 25 0 22 0;
#X connect 26 1 27 0;
#X connect 27 0 28 0;
#X connect 28 0 29 0;
#X connect 29 0 25 0;
#X connect 31 0 35 0;
#X connect 31 1 33 0;
#X connect 31 2 34 0;
#X connect 32 0 14 1;
#X connect 33 0 32 0;
#X connect 34 0 32 0;
#X connect 35 0 32 0;
#X restore 100 66 pd FM2;
#X obj 48 104 +~;
#X obj 48 137 *~ 0.5;
#X obj 48 291 throw~ sum;
#N canvas 97 247 474 442 filter/adsr 0;
#X obj 202 144 adsr-mc;
#X obj 24 132 inlet~;
#X obj 24 265 vcf~ 1;
#X obj 24 305 vcf~ 1;
#X obj 95 209 *~;
#X floatatom 95 174 5 0 0 0 - fenv_amount -;
#X floatatom 103 261 5 0 0 0 - f_q -;
#X obj 24 366 outlet~;
#X obj 102 93 inlet;
#X obj 24 341 *~;
#X obj 272 295 adsr-mc;
#X obj 220 66 r fa;
#X obj 248 118 r fr;
#X obj 239 102 r fs;
#X obj 228 84 r fd;
#X obj 318 256 r ar;
#X obj 309 240 r as;
#X obj 298 222 r ad;
#X obj 290 204 r aa;
#X obj 43 237 +~;
#X obj 103 113 unpack f f;
#X floatatom 44 166 5 0 0 0 - f_frequency -;
#X obj 282 15 loadbang;
#X msg 282 40 100;
#X obj 272 323 dbtorms~;
#X connect 0 0 4 1;
#X connect 1 0 2 0;
#X connect 2 0 3 0;
#X connect 3 0 9 0;
#X connect 4 0 19 1;
#X connect 5 0 4 0;
#X connect 6 0 2 2;
#X connect 6 0 3 2;
#X connect 8 0 20 0;
#X connect 9 0 7 0;
#X connect 10 0 24 0;
#X connect 11 0 0 2;
#X connect 12 0 0 5;
#X connect 13 0 0 4;
#X connect 14 0 0 3;
#X connect 15 0 10 5;
#X connect 16 0 10 4;
#X connect 17 0 10 3;
#X connect 18 0 10 2;
#X connect 19 0 2 1;
#X connect 19 0 3 1;
#X connect 20 1 0 0;
#X connect 20 1 10 0;
#X connect 21 0 19 0;
#X connect 22 0 23 0;
#X connect 23 0 0 1;
#X connect 23 0 10 1;
#X connect 24 0 9 1;
#X restore 48 201 pd filter/adsr;
#X connect 0 0 3 0;
#X connect 1 0 0 0;
#X connect 1 0 2 0;
#X connect 1 0 6 1;
#X connect 2 0 3 1;
#X connect 3 0 4 0;
#X connect 4 0 6 0;
#X connect 6 0 5 0;
#X restore 122 125 pd voice~;
#N canvas 60 438 194 342 voice~ 0;
#N canvas 783 64 475 751 FM1 0;
#X obj 111 27 inlet;
#X obj 112 59 unpack f f;
#X obj 113 252 mtof;
#X obj 114 613 +~;
#X floatatom 162 360 5 0 0 0 - index1 -;
#X obj 187 481 *~;
#X floatatom 281 364 5 0 0 2 ratio1 ratio1 -;
#X obj 282 407 t b f;
#X obj 282 430 *;
#X obj 281 471 osc~;
#X obj 187 513 *~;
#X obj 205 299 adsr-mc;
#X obj 114 635 osc~;
#X obj 114 658 *~;
#X obj 185 629 dbtorms~;
#X floatatom 122 126 5 0 0 0 - octave1 -;
#X obj 113 278 *;
#X floatatom 185 604 5 0 0 0 - fm1_volume -;
#X obj 114 699 outlet~;
#X obj 282 384 + 1;
#X obj 224 224 r fma;
#X obj 231 242 r fmd;
#X obj 242 260 r fms;
#X obj 252 278 r fmr;
#X obj 213 122 loadbang;
#X msg 214 155 100;
#X obj 187 568 *~;
#X obj 342 478 dbtorms~;
#X obj 338 160 sel 0;
#X obj 341 207 * 40;
#X obj 342 238 + 80;
#X obj 342 433 sig~;
#X obj 205 330 *~ 0.01;
#X obj 187 386 *~;
#X obj 121 153 sel 0 1 2;
#X msg 122 176 0.5;
#X obj 154 252 float;
#X msg 140 197 1;
#X msg 162 217 2;
#X obj 219 351 loadbang;
#X obj 203 417 env~;
#X floatatom 203 444 5 0 0 0 - - -;
#X connect 0 0 1 0;
#X connect 1 0 2 0;
#X connect 1 1 11 0;
#X connect 1 1 28 0;
#X connect 2 0 16 0;
#X connect 3 0 12 0;
#X connect 4 0 33 0;
#X connect 5 0 10 0;
#X connect 6 0 19 0;
#X connect 7 0 8 0;
#X connect 7 1 8 1;
#X connect 8 0 5 1;
#X connect 8 0 9 0;
#X connect 9 0 10 1;
#X connect 10 0 26 0;
#X connect 11 0 32 0;
#X connect 12 0 13 0;
#X connect 13 0 18 0;
#X connect 14 0 13 1;
#X connect 15 0 34 0;
#X connect 16 0 3 0;
#X connect 16 0 8 0;
#X connect 17 0 14 0;
#X connect 19 0 7 0;
#X connect 20 0 11 2;
#X connect 21 0 11 3;
#X connect 22 0 11 4;
#X connect 23 0 11 5;
#X connect 24 0 25 0;
#X connect 25 0 11 1;
#X connect 26 0 3 1;
#X connect 27 0 26 1;
#X connect 28 1 29 0;
#X connect 29 0 30 0;
#X connect 30 0 31 0;
#X connect 31 0 27 0;
#X connect 32 0 33 1;
#X connect 32 0 40 0;
#X connect 33 0 5 0;
#X connect 34 0 35 0;
#X connect 34 1 37 0;
#X connect 34 2 38 0;
#X connect 35 0 36 0;
#X connect 36 0 16 1;
#X connect 37 0 36 0;
#X connect 38 0 36 0;
#X connect 39 0 19 0;
#X connect 40 0 41 0;
#X restore 48 66 pd FM1;
#X obj 48 24 inlet;
#N canvas 58 25 451 789 FM2 0;
#X obj 229 415 pack f 300;
#X floatatom 229 368 5 0 0 0 - index2 -;
#X obj 229 439 vline~;
#X obj 229 471 *~;
#X floatatom 337 338 5 0 0 2 ratio2 ratio2 -;
#X obj 337 397 t b f;
#X obj 337 420 *;
#X obj 336 461 osc~;
#X obj 229 503 *~;
#X obj 194 623 +~;
#X obj 194 654 osc~;
#X obj 194 680 *~;
#X obj 279 650 dbtorms~;
#X floatatom 277 108 5 0 0 0 - octave2 -;
#X obj 194 282 *;
#X obj 193 108 r detune;
#X obj 194 141 / 100;
#X obj 194 162 t b f;
#X obj 194 193 +;
#X obj 193 223 mtof;
#X floatatom 278 624 5 0 0 0 - fm2_volume -;
#X obj 338 366 + 1;
#X obj 211 570 *~;
#X obj 39 26 inlet;
#X obj 38 74 unpack f f;
#X obj 108 505 dbtorms~;
#X obj 104 327 sel 0;
#X obj 107 374 * 40;
#X obj 108 405 + 80;
#X obj 108 469 sig~;
#X obj 194 734 outlet~;
#X obj 276 131 sel 0 1 2;
#X obj 309 230 float;
#X msg 295 175 1;
#X msg 317 195 2;
#X msg 275 157 0.5;
#X floatatom 156 132 5 0 0 0 - - -;
#X connect 0 0 2 0;
#X connect 1 0 0 0;
#X connect 2 0 3 0;
#X connect 3 0 8 0;
#X connect 4 0 21 0;
#X connect 5 0 6 0;
#X connect 5 1 6 1;
#X connect 6 0 3 1;
#X connect 6 0 7 0;
#X connect 7 0 8 1;
#X connect 8 0 22 1;
#X connect 9 0 10 0;
#X connect 10 0 11 0;
#X connect 11 0 30 0;
#X connect 12 0 11 1;
#X connect 13 0 31 0;
#X connect 14 0 9 0;
#X connect 14 0 6 0;
#X connect 15 0 16 0;
#X connect 15 0 36 0;
#X connect 16 0 17 0;
#X connect 17 0 18 0;
#X connect 17 1 18 1;
#X connect 18 0 19 0;
#X connect 19 0 14 0;
#X connect 20 0 12 0;
#X connect 21 0 5 0;
#X connect 22 0 9 1;
#X connect 23 0 24 0;
#X connect 24 0 18 0;
#X connect 24 1 26 0;
#X connect 25 0 22 0;
#X connect 26 1 27 0;
#X connect 27 0 28 0;
#X connect 28 0 29 0;
#X connect 29 0 25 0;
#X connect 31 0 35 0;
#X connect 31 1 33 0;
#X connect 31 2 34 0;
#X connect 32 0 14 1;
#X connect 33 0 32 0;
#X connect 34 0 32 0;
#X connect 35 0 32 0;
#X restore 100 66 pd FM2;
#X obj 48 104 +~;
#X obj 48 137 *~ 0.5;
#X obj 48 291 throw~ sum;
#N canvas 97 247 474 442 filter/adsr 0;
#X obj 202 144 adsr-mc;
#X obj 24 132 inlet~;
#X obj 24 265 vcf~ 1;
#X obj 24 305 vcf~ 1;
#X obj 95 209 *~;
#X floatatom 95 174 5 0 0 0 - fenv_amount -;
#X floatatom 103 261 5 0 0 0 - f_q -;
#X obj 24 366 outlet~;
#X obj 102 93 inlet;
#X obj 24 341 *~;
#X obj 272 295 adsr-mc;
#X obj 220 66 r fa;
#X obj 248 118 r fr;
#X obj 239 102 r fs;
#X obj 228 84 r fd;
#X obj 318 256 r ar;
#X obj 309 240 r as;
#X obj 298 222 r ad;
#X obj 290 204 r aa;
#X obj 43 237 +~;
#X obj 103 113 unpack f f;
#X floatatom 44 166 5 0 0 0 - f_frequency -;
#X obj 282 15 loadbang;
#X msg 282 40 100;
#X obj 272 323 dbtorms~;
#X connect 0 0 4 1;
#X connect 1 0 2 0;
#X connect 2 0 3 0;
#X connect 3 0 9 0;
#X connect 4 0 19 1;
#X connect 5 0 4 0;
#X connect 6 0 2 2;
#X connect 6 0 3 2;
#X connect 8 0 20 0;
#X connect 9 0 7 0;
#X connect 10 0 24 0;
#X connect 11 0 0 2;
#X connect 12 0 0 5;
#X connect 13 0 0 4;
#X connect 14 0 0 3;
#X connect 15 0 10 5;
#X connect 16 0 10 4;
#X connect 17 0 10 3;
#X connect 18 0 10 2;
#X connect 19 0 2 1;
#X connect 19 0 3 1;
#X connect 20 1 0 0;
#X connect 20 1 10 0;
#X connect 21 0 19 0;
#X connect 22 0 23 0;
#X connect 23 0 0 1;
#X connect 23 0 10 1;
#X connect 24 0 9 1;
#X restore 48 201 pd filter/adsr;
#X connect 0 0 3 0;
#X connect 1 0 0 0;
#X connect 1 0 2 0;
#X connect 1 0 6 1;
#X connect 2 0 3 1;
#X connect 3 0 4 0;
#X connect 4 0 6 0;
#X connect 6 0 5 0;
#X restore 149 103 pd voice~;
#X msg 293 254 \; poct_1 1 \; poct_2 1 \; pd dsp 1;
#X floatatom 203 186 5 0 0 0 - - -;
#X obj 123 304 env~;
#X floatatom 123 325 5 0 0 0 - - -;
#X msg 191 159 100;
#X connect 1 0 3 0;
#X connect 1 0 18 0;
#X connect 2 0 3 1;
#X connect 3 0 0 0;
#X connect 3 0 0 1;
#X connect 4 0 16 0;
#X connect 4 0 20 0;
#X connect 6 0 7 0;
#X connect 7 0 2 0;
#X connect 9 0 10 0;
#X connect 9 1 11 0;
#X connect 9 2 12 0;
#X connect 9 3 13 0;
#X connect 9 4 14 0;
#X connect 9 5 15 0;
#X connect 17 0 6 0;
#X connect 18 0 19 0;
#X connect 20 0 6 0;
#X restore 57 506 pd guts;
