#N canvas 367 492 927 304 10;
#X obj 541 85 coll pitchProb_2ndOrder;
#C restore;
#X obj 232 93 bng 15 250 50 0 empty empty Clear_pitch_memory 17 7 0
10 -262144 -1 -1;
#X obj 283 229 coll pitchProb_1stOrder;
#C restore;
#X obj 134 80 bng 15 250 50 0 empty empty Recalculate_pitch_distributions
17 7 0 10 -262144 -1 -1;
#X floatatom -54 49 5 0 0 1 Incomming_Pitches - -;
#X text 539 23 Pitch probability distributions:;
#X text 539 117 Pitch histograms:;
#X obj 541 135 coll pitchHist_1stOrder;
#C restore;
#X obj 541 156 coll pitchHist_2ndOrder;
#C restore;
#X text 546 46 2nd Order indexed #6060 \, 6061 \, ... \, 7171;
#X text 546 35 1st Order indexed #60-71;
#N canvas -28 128 1011 656 morkovAnalysis 0;
#N canvas 493 346 450 288 pair 0;
#X obj 30 32 inlet;
#X obj 30 251 outlet;
#X obj 30 92 t f b f;
#X obj 30 117 f;
#X obj 30 141 pack;
#X text 31 10 float in;
#X text 81 257 1 2 3 4 5 becomes 1 2 \, 2 3 \, 3 4 \, 4 5;
#X obj 237 36 r resetMatrix;
#X obj 222 119 f 0;
#X msg 237 72 0;
#X obj 30 198 spigot 0;
#X obj 30 58 t f b;
#X obj 222 145 sel 0;
#X msg 184 132 1;
#X msg 249 168 1;
#X text 80 244 list of paired numbers out;
#X connect 0 0 11 0;
#X connect 2 0 3 1;
#X connect 2 1 3 0;
#X connect 2 2 4 1;
#X connect 3 0 4 0;
#X connect 4 0 10 0;
#X connect 7 0 9 0;
#X connect 8 0 12 0;
#X connect 9 0 8 1;
#X connect 9 0 10 1;
#X connect 10 0 1 0;
#X connect 11 0 2 0;
#X connect 11 1 8 0;
#X connect 12 0 13 0;
#X connect 12 1 14 0;
#X connect 13 0 8 1;
#X connect 14 0 10 1;
#X restore 36 120 pd pair;
#X msg 36 147 merge \$1 \$2;
#X msg 2145 67 clear;
#X obj 36 38 inlet pitches;
#X obj 2145 45 inlet reset_matrix;
#X obj 2171 129 coll pitchProb_1stOrder;
#C restore;
#X obj 2169 148 coll pitchProb_2ndOrder;
#C restore;
#X obj 36 196 coll pitchHist_1stOrder;
#C restore;
#X obj 2177 91 coll pitchHist_1stOrder;
#C restore;
#X obj 2175 110 coll pitchHist_2ndOrder;
#C restore;
#X obj 460 35 inlet calcProbs;
#X text 36 17 MIDI pitches input (0-127);
#X text 2137 15 Clear pitch probability matricies (bang);
#X msg 249 157 merge \$1 \$2;
#N canvas 455 336 450 324 triples 0;
#X obj 30 32 inlet;
#X obj 30 281 outlet;
#X text 31 10 float in;
#X text 80 274 list of paired numbers out;
#N canvas 0 22 450 300 zl-stream 0;
#X obj 30 15 inlet;
#X obj 30 260 outlet;
#X obj 30 52 t f f b;
#X obj 58 84 f;
#X obj 58 109 t f b f;
#X obj 58 137 f;
#X obj 30 207 pack f f f;
#X msg 30 232 \$2 \$3 \$1;
#X connect 0 0 2 0;
#X connect 2 0 6 0;
#X connect 2 1 3 1;
#X connect 2 2 3 0;
#X connect 3 0 4 0;
#X connect 4 0 5 1;
#X connect 4 1 5 0;
#X connect 4 2 6 2;
#X connect 5 0 6 1;
#X connect 6 0 7 0;
#X connect 7 0 1 0;
#X restore 30 104 pd zl-stream;
#X obj 30 130 unpack f f f;
#X obj 30 152 pack;
#X obj 30 176 sprintf %i%i;
#X obj 30 214 pack;
#X text 81 287 1 2 3 4 5 becomes 1 2 3 \, 2 3 4 \, 3 4 5;
#X obj 246 118 bng 15 250 50 0 empty empty empty 17 7 0 10 -262144
-1 -1;
#X obj 30 242 spigot 0;
#X obj 261 34 r resetMatrix;
#X obj 30 54 t f b;
#X obj 246 137 f 0;
#X msg 261 78 0;
#X msg 181 198 1;
#X obj 246 170 sel 0 1;
#X msg 285 196 1;
#X msg 211 198 2;
#X obj 148 27 counter;
#X msg 148 5 bang;
#X floatatom 148 48 5 0 0 0 - - -;
#X connect 0 0 13 0;
#X connect 4 0 5 0;
#X connect 5 0 6 0;
#X connect 5 1 6 1;
#X connect 5 2 8 1;
#X connect 6 0 7 0;
#X connect 7 0 8 0;
#X connect 8 0 11 0;
#X connect 10 0 14 0;
#X connect 11 0 1 0;
#X connect 12 0 15 0;
#X connect 13 0 4 0;
#X connect 13 1 10 0;
#X connect 14 0 17 0;
#X connect 15 0 14 1;
#X connect 15 0 11 1;
#X connect 16 0 14 1;
#X connect 17 0 16 0;
#X connect 17 1 19 0;
#X connect 17 2 18 0;
#X connect 18 0 11 1;
#X connect 19 0 14 1;
#X connect 20 0 13 0;
#X connect 20 0 22 0;
#X connect 21 0 20 0;
#X restore 249 113 pd triples;
#X obj 249 194 coll pitchHist_2ndOrder;
#C restore;
#X obj 2133 177 s resetMatrix;
#X obj 36 59 mod 12;
#X text 75 79 restrict pitches to #60-71;
#X obj 36 79 + 60;
#X floatatom 480 202 5 0 0 0 - - -;
#X obj 506 296 coll pitchHist_1stOrder;
#C restore;
#X obj 460 172 + 60;
#X obj 460 150 counter 11;
#X obj 511 318 iter;
#X obj 613 338 sel 60 61 62 63 64 65 66 67 68 69 70 71;
#N canvas 317 249 450 300 cnt 0;
#X obj -3 178 + 1;
#X obj -3 31 inlet increment;
#X obj -3 152 f -1;
#X obj -3 261 outlet count;
#X msg 114 59 -1;
#X obj 114 32 inlet reset_&_output_0;
#X connect 0 0 2 1;
#X connect 0 0 3 0;
#X connect 1 0 2 0;
#X connect 2 0 0 0;
#X connect 4 0 2 0;
#X connect 5 0 4 0;
#X restore 613 379 pd cnt;
#X msg 559 347 bang;
#N canvas 317 249 450 300 cnt 0;
#X obj -3 178 + 1;
#X obj -3 31 inlet increment;
#X obj -3 152 f -1;
#X obj -3 261 outlet count;
#X msg 114 59 -1;
#X obj 114 32 inlet reset_&_output_0;
#X connect 0 0 2 1;
#X connect 0 0 3 0;
#X connect 1 0 2 0;
#X connect 2 0 0 0;
#X connect 4 0 2 0;
#X connect 5 0 4 0;
#X restore 655 379 pd cnt;
#N canvas 317 249 450 300 cnt 0;
#X obj -3 178 + 1;
#X obj -3 31 inlet increment;
#X obj -3 152 f -1;
#X obj -3 261 outlet count;
#X msg 114 59 -1;
#X obj 114 32 inlet reset_&_output_0;
#X connect 0 0 2 1;
#X connect 0 0 3 0;
#X connect 1 0 2 0;
#X connect 2 0 0 0;
#X connect 4 0 2 0;
#X connect 5 0 4 0;
#X restore 697 379 pd cnt;
#N canvas 317 249 450 300 cnt 0;
#X obj -3 178 + 1;
#X obj -3 31 inlet increment;
#X obj -3 152 f -1;
#X obj -3 261 outlet count;
#X msg 114 59 -1;
#X obj 114 32 inlet reset_&_output_0;
#X connect 0 0 2 1;
#X connect 0 0 3 0;
#X connect 1 0 2 0;
#X connect 2 0 0 0;
#X connect 4 0 2 0;
#X connect 5 0 4 0;
#X restore 739 379 pd cnt;
#N canvas 317 249 450 300 cnt 0;
#X obj -3 178 + 1;
#X obj -3 31 inlet increment;
#X obj -3 152 f -1;
#X obj -3 261 outlet count;
#X msg 114 59 -1;
#X obj 114 32 inlet reset_&_output_0;
#X connect 0 0 2 1;
#X connect 0 0 3 0;
#X connect 1 0 2 0;
#X connect 2 0 0 0;
#X connect 4 0 2 0;
#X connect 5 0 4 0;
#X restore 781 379 pd cnt;
#N canvas 317 249 450 300 cnt 0;
#X obj -3 178 + 1;
#X obj -3 31 inlet increment;
#X obj -3 152 f -1;
#X obj -3 261 outlet count;
#X msg 114 59 -1;
#X obj 114 32 inlet reset_&_output_0;
#X connect 0 0 2 1;
#X connect 0 0 3 0;
#X connect 1 0 2 0;
#X connect 2 0 0 0;
#X connect 4 0 2 0;
#X connect 5 0 4 0;
#X restore 823 379 pd cnt;
#N canvas 317 249 450 300 cnt 0;
#X obj -3 178 + 1;
#X obj -3 31 inlet increment;
#X obj -3 152 f -1;
#X obj -3 261 outlet count;
#X msg 114 59 -1;
#X obj 114 32 inlet reset_&_output_0;
#X connect 0 0 2 1;
#X connect 0 0 3 0;
#X connect 1 0 2 0;
#X connect 2 0 0 0;
#X connect 4 0 2 0;
#X connect 5 0 4 0;
#X restore 865 379 pd cnt;
#N canvas 317 249 450 300 cnt 0;
#X obj -3 178 + 1;
#X obj -3 31 inlet increment;
#X obj -3 152 f -1;
#X obj -3 261 outlet count;
#X msg 114 59 -1;
#X obj 114 32 inlet reset_&_output_0;
#X connect 0 0 2 1;
#X connect 0 0 3 0;
#X connect 1 0 2 0;
#X connect 2 0 0 0;
#X connect 4 0 2 0;
#X connect 5 0 4 0;
#X restore 907 379 pd cnt;
#N canvas 317 249 450 300 cnt 0;
#X obj -3 178 + 1;
#X obj -3 31 inlet increment;
#X obj -3 152 f -1;
#X obj -3 261 outlet count;
#X msg 114 59 -1;
#X obj 114 32 inlet reset_&_output_0;
#X connect 0 0 2 1;
#X connect 0 0 3 0;
#X connect 1 0 2 0;
#X connect 2 0 0 0;
#X connect 4 0 2 0;
#X connect 5 0 4 0;
#X restore 949 379 pd cnt;
#N canvas 317 249 450 300 cnt 0;
#X obj -3 178 + 1;
#X obj -3 31 inlet increment;
#X obj -3 152 f -1;
#X obj -3 261 outlet count;
#X msg 114 59 -1;
#X obj 114 32 inlet reset_&_output_0;
#X connect 0 0 2 1;
#X connect 0 0 3 0;
#X connect 1 0 2 0;
#X connect 2 0 0 0;
#X connect 4 0 2 0;
#X connect 5 0 4 0;
#X restore 991 379 pd cnt;
#N canvas 317 249 450 300 cnt 0;
#X obj -3 178 + 1;
#X obj -3 31 inlet increment;
#X obj -3 152 f -1;
#X obj -3 261 outlet count;
#X msg 114 59 -1;
#X obj 114 32 inlet reset_&_output_0;
#X connect 0 0 2 1;
#X connect 0 0 3 0;
#X connect 1 0 2 0;
#X connect 2 0 0 0;
#X connect 4 0 2 0;
#X connect 5 0 4 0;
#X restore 1033 379 pd cnt;
#N canvas 317 249 450 300 cnt 0;
#X obj -3 178 + 1;
#X obj -3 31 inlet increment;
#X obj -3 152 f -1;
#X obj -3 261 outlet count;
#X msg 114 59 -1;
#X obj 114 32 inlet reset_&_output_0;
#X connect 0 0 2 1;
#X connect 0 0 3 0;
#X connect 1 0 2 0;
#X connect 2 0 0 0;
#X connect 4 0 2 0;
#X connect 5 0 4 0;
#X restore 1075 379 pd cnt;
#X obj 460 83 t b b;
#X obj 460 125 until;
#X msg 460 105 12;
#X obj 506 386 length;
#X obj 655 414 /;
#X obj 697 414 /;
#X obj 739 414 /;
#X obj 781 414 /;
#X obj 823 414 /;
#X obj 865 414 /;
#X obj 907 414 /;
#X obj 949 414 /;
#X obj 991 414 /;
#X obj 1033 414 /;
#X obj 1075 414 /;
#X obj 613 414 /;
#X obj 460 442 pack f f f f f f f f f f f f f;
#X obj 460 238 t b f b f;
#X obj 460 344 f;
#X obj 460 473 coll pitchProb_1stOrder;
#C restore;
#X msg 500 125 bang;
#X obj 1385 447 iter;
#X obj 1487 470 sel 60 61 62 63 64 65 66 67 68 69 70 71;
#N canvas 317 249 450 300 cnt 0;
#X obj -3 178 + 1;
#X obj -3 31 inlet increment;
#X obj -3 152 f -1;
#X obj -3 261 outlet count;
#X msg 114 59 -1;
#X obj 114 32 inlet reset_&_output_0;
#X connect 0 0 2 1;
#X connect 0 0 3 0;
#X connect 1 0 2 0;
#X connect 2 0 0 0;
#X connect 4 0 2 0;
#X connect 5 0 4 0;
#X restore 1487 511 pd cnt;
#X msg 1433 479 bang;
#N canvas 317 249 450 300 cnt 0;
#X obj -3 178 + 1;
#X obj -3 31 inlet increment;
#X obj -3 152 f -1;
#X obj -3 261 outlet count;
#X msg 114 59 -1;
#X obj 114 32 inlet reset_&_output_0;
#X connect 0 0 2 1;
#X connect 0 0 3 0;
#X connect 1 0 2 0;
#X connect 2 0 0 0;
#X connect 4 0 2 0;
#X connect 5 0 4 0;
#X restore 1529 511 pd cnt;
#N canvas 317 249 450 300 cnt 0;
#X obj -3 178 + 1;
#X obj -3 31 inlet increment;
#X obj -3 152 f -1;
#X obj -3 261 outlet count;
#X msg 114 59 -1;
#X obj 114 32 inlet reset_&_output_0;
#X connect 0 0 2 1;
#X connect 0 0 3 0;
#X connect 1 0 2 0;
#X connect 2 0 0 0;
#X connect 4 0 2 0;
#X connect 5 0 4 0;
#X restore 1571 511 pd cnt;
#N canvas 317 249 450 300 cnt 0;
#X obj -3 178 + 1;
#X obj -3 31 inlet increment;
#X obj -3 152 f -1;
#X obj -3 261 outlet count;
#X msg 114 59 -1;
#X obj 114 32 inlet reset_&_output_0;
#X connect 0 0 2 1;
#X connect 0 0 3 0;
#X connect 1 0 2 0;
#X connect 2 0 0 0;
#X connect 4 0 2 0;
#X connect 5 0 4 0;
#X restore 1613 511 pd cnt;
#N canvas 317 249 450 300 cnt 0;
#X obj -3 178 + 1;
#X obj -3 31 inlet increment;
#X obj -3 152 f -1;
#X obj -3 261 outlet count;
#X msg 114 59 -1;
#X obj 114 32 inlet reset_&_output_0;
#X connect 0 0 2 1;
#X connect 0 0 3 0;
#X connect 1 0 2 0;
#X connect 2 0 0 0;
#X connect 4 0 2 0;
#X connect 5 0 4 0;
#X restore 1655 511 pd cnt;
#N canvas 317 249 450 300 cnt 0;
#X obj -3 178 + 1;
#X obj -3 31 inlet increment;
#X obj -3 152 f -1;
#X obj -3 261 outlet count;
#X msg 114 59 -1;
#X obj 114 32 inlet reset_&_output_0;
#X connect 0 0 2 1;
#X connect 0 0 3 0;
#X connect 1 0 2 0;
#X connect 2 0 0 0;
#X connect 4 0 2 0;
#X connect 5 0 4 0;
#X restore 1697 511 pd cnt;
#N canvas 317 249 450 300 cnt 0;
#X obj -3 178 + 1;
#X obj -3 31 inlet increment;
#X obj -3 152 f -1;
#X obj -3 261 outlet count;
#X msg 114 59 -1;
#X obj 114 32 inlet reset_&_output_0;
#X connect 0 0 2 1;
#X connect 0 0 3 0;
#X connect 1 0 2 0;
#X connect 2 0 0 0;
#X connect 4 0 2 0;
#X connect 5 0 4 0;
#X restore 1739 511 pd cnt;
#N canvas 317 249 450 300 cnt 0;
#X obj -3 178 + 1;
#X obj -3 31 inlet increment;
#X obj -3 152 f -1;
#X obj -3 261 outlet count;
#X msg 114 59 -1;
#X obj 114 32 inlet reset_&_output_0;
#X connect 0 0 2 1;
#X connect 0 0 3 0;
#X connect 1 0 2 0;
#X connect 2 0 0 0;
#X connect 4 0 2 0;
#X connect 5 0 4 0;
#X restore 1781 511 pd cnt;
#N canvas 317 249 450 300 cnt 0;
#X obj -3 178 + 1;
#X obj -3 31 inlet increment;
#X obj -3 152 f -1;
#X obj -3 261 outlet count;
#X msg 114 59 -1;
#X obj 114 32 inlet reset_&_output_0;
#X connect 0 0 2 1;
#X connect 0 0 3 0;
#X connect 1 0 2 0;
#X connect 2 0 0 0;
#X connect 4 0 2 0;
#X connect 5 0 4 0;
#X restore 1823 511 pd cnt;
#N canvas 317 249 450 300 cnt 0;
#X obj -3 178 + 1;
#X obj -3 31 inlet increment;
#X obj -3 152 f -1;
#X obj -3 261 outlet count;
#X msg 114 59 -1;
#X obj 114 32 inlet reset_&_output_0;
#X connect 0 0 2 1;
#X connect 0 0 3 0;
#X connect 1 0 2 0;
#X connect 2 0 0 0;
#X connect 4 0 2 0;
#X connect 5 0 4 0;
#X restore 1865 511 pd cnt;
#N canvas 317 249 450 300 cnt 0;
#X obj -3 178 + 1;
#X obj -3 31 inlet increment;
#X obj -3 152 f -1;
#X obj -3 261 outlet count;
#X msg 114 59 -1;
#X obj 114 32 inlet reset_&_output_0;
#X connect 0 0 2 1;
#X connect 0 0 3 0;
#X connect 1 0 2 0;
#X connect 2 0 0 0;
#X connect 4 0 2 0;
#X connect 5 0 4 0;
#X restore 1907 511 pd cnt;
#N canvas 317 249 450 300 cnt 0;
#X obj -3 178 + 1;
#X obj -3 31 inlet increment;
#X obj -3 152 f -1;
#X obj -3 261 outlet count;
#X msg 114 59 -1;
#X obj 114 32 inlet reset_&_output_0;
#X connect 0 0 2 1;
#X connect 0 0 3 0;
#X connect 1 0 2 0;
#X connect 2 0 0 0;
#X connect 4 0 2 0;
#X connect 5 0 4 0;
#X restore 1949 511 pd cnt;
#X obj 1380 517 length;
#X obj 1529 545 /;
#X obj 1571 545 /;
#X obj 1613 545 /;
#X obj 1655 545 /;
#X obj 1697 545 /;
#X obj 1739 545 /;
#X obj 1781 545 /;
#X obj 1823 545 /;
#X obj 1865 545 /;
#X obj 1907 545 /;
#X obj 1949 545 /;
#X obj 1487 545 /;
#X obj 1335 580 pack f f f f f f f f f f f f f;
#X obj 1334 367 t b f b f;
#X obj 1334 473 f;
#X obj 1380 425 coll pitchHist_2ndOrder;
#C restore;
#X obj 1335 601 coll pitchProb_2ndOrder;
#C restore;
#X text 2448 650 end;
#X obj 1334 131 until;
#N canvas 317 249 450 300 cnt 0;
#X obj -3 178 + 1;
#X obj -3 31 inlet increment;
#X obj -3 152 f -1;
#X obj -3 261 outlet count;
#X msg 114 59 -1;
#X obj 114 32 inlet reset_&_output_0;
#X connect 0 0 2 1;
#X connect 0 0 3 0;
#X connect 1 0 2 0;
#X connect 2 0 0 0;
#X connect 4 0 2 0;
#X connect 5 0 4 0;
#X restore 1334 152 pd cnt;
#X obj 1334 72 t b b;
#X obj 1334 172 + 60;
#X msg 1334 111 11;
#N canvas 317 249 450 300 cnt 0;
#X obj -3 178 + 1;
#X obj -3 31 inlet increment;
#X obj -3 152 f -1;
#X obj -3 261 outlet count;
#X msg 114 59 -1;
#X obj 114 32 inlet reset_&_output_0;
#X connect 0 0 2 1;
#X connect 0 0 3 0;
#X connect 1 0 2 0;
#X connect 2 0 0 0;
#X connect 4 0 2 0;
#X connect 5 0 4 0;
#X restore 1334 258 pd cnt;
#X obj 1334 239 until;
#X obj 1348 195 t b b f;
#X obj 1334 323 f;
#X obj 1334 296 t b f;
#X obj 1334 277 + 60;
#X text 1374 72 Iterate '6060' to '7171';
#X text 1391 501 #1;
#X text 1392 463 #2;
#X text 515 369 #1;
#X text 515 336 #2;
#X msg 1334 220 11;
#X obj 1379 294 * 100;
#X obj 1340 346 +;
#X text 466 64 Calc 1st order pitch distributions;
#X text 1333 53 Calc 2nd order pitch distributions;
#X text 459 14 Update pitch distributions (bang);
#X obj 611 317 sel 1 2 3 4 5 6 7 8 9 10 11 12;
#X connect 0 0 1 0;
#X connect 1 0 7 0;
#X connect 2 0 5 0;
#X connect 2 0 6 0;
#X connect 2 0 8 0;
#X connect 2 0 9 0;
#X connect 2 0 16 0;
#X connect 3 0 17 0;
#X connect 4 0 2 0;
#X connect 10 0 39 0;
#X connect 10 0 96 0;
#X connect 13 0 15 0;
#X connect 14 0 13 0;
#X connect 17 0 19 0;
#X connect 19 0 0 0;
#X connect 19 0 14 0;
#X connect 21 0 42 0;
#X connect 21 0 24 0;
#X connect 22 0 20 0;
#X connect 22 0 56 0;
#X connect 23 0 22 0;
#X connect 24 0 25 0;
#X connect 25 0 26 0;
#X connect 25 1 28 0;
#X connect 25 2 29 0;
#X connect 25 3 30 0;
#X connect 25 4 31 0;
#X connect 25 5 32 0;
#X connect 25 6 33 0;
#X connect 25 7 34 0;
#X connect 25 8 35 0;
#X connect 25 9 36 0;
#X connect 25 10 37 0;
#X connect 25 11 38 0;
#X connect 26 0 54 0;
#X connect 27 0 26 1;
#X connect 27 0 28 1;
#X connect 27 0 29 1;
#X connect 27 0 30 1;
#X connect 27 0 31 1;
#X connect 27 0 32 1;
#X connect 27 0 33 1;
#X connect 27 0 34 1;
#X connect 27 0 35 1;
#X connect 27 0 36 1;
#X connect 27 0 37 1;
#X connect 27 0 38 1;
#X connect 28 0 43 0;
#X connect 29 0 44 0;
#X connect 30 0 45 0;
#X connect 31 0 46 0;
#X connect 32 0 47 0;
#X connect 33 0 48 0;
#X connect 34 0 49 0;
#X connect 35 0 50 0;
#X connect 36 0 51 0;
#X connect 37 0 52 0;
#X connect 38 0 53 0;
#X connect 39 0 41 0;
#X connect 39 1 59 0;
#X connect 40 0 23 0;
#X connect 41 0 40 0;
#X connect 42 0 54 1;
#X connect 42 0 43 1;
#X connect 42 0 44 1;
#X connect 42 0 45 1;
#X connect 42 0 46 1;
#X connect 42 0 47 1;
#X connect 42 0 48 1;
#X connect 42 0 49 1;
#X connect 42 0 50 1;
#X connect 42 0 51 1;
#X connect 42 0 52 1;
#X connect 42 0 53 1;
#X connect 43 0 55 2;
#X connect 44 0 55 3;
#X connect 45 0 55 4;
#X connect 46 0 55 5;
#X connect 47 0 55 6;
#X connect 48 0 55 7;
#X connect 49 0 55 8;
#X connect 50 0 55 9;
#X connect 51 0 55 10;
#X connect 52 0 55 11;
#X connect 53 0 55 12;
#X connect 54 0 55 1;
#X connect 55 0 58 0;
#X connect 56 0 57 0;
#X connect 56 1 21 0;
#X connect 56 2 27 0;
#X connect 56 3 57 1;
#X connect 57 0 55 0;
#X connect 59 0 23 2;
#X connect 60 0 61 0;
#X connect 61 0 62 0;
#X connect 61 1 64 0;
#X connect 61 2 65 0;
#X connect 61 3 66 0;
#X connect 61 4 67 0;
#X connect 61 5 68 0;
#X connect 61 6 69 0;
#X connect 61 7 70 0;
#X connect 61 8 71 0;
#X connect 61 9 72 0;
#X connect 61 10 73 0;
#X connect 61 11 74 0;
#X connect 62 0 87 0;
#X connect 63 0 62 1;
#X connect 63 0 64 1;
#X connect 63 0 65 1;
#X connect 63 0 66 1;
#X connect 63 0 67 1;
#X connect 63 0 68 1;
#X connect 63 0 69 1;
#X connect 63 0 70 1;
#X connect 63 0 71 1;
#X connect 63 0 72 1;
#X connect 63 0 73 1;
#X connect 63 0 74 1;
#X connect 64 0 76 0;
#X connect 65 0 77 0;
#X connect 66 0 78 0;
#X connect 67 0 79 0;
#X connect 68 0 80 0;
#X connect 69 0 81 0;
#X connect 70 0 82 0;
#X connect 71 0 83 0;
#X connect 72 0 84 0;
#X connect 73 0 85 0;
#X connect 74 0 86 0;
#X connect 75 0 87 1;
#X connect 75 0 76 1;
#X connect 75 0 77 1;
#X connect 75 0 78 1;
#X connect 75 0 79 1;
#X connect 75 0 80 1;
#X connect 75 0 81 1;
#X connect 75 0 82 1;
#X connect 75 0 83 1;
#X connect 75 0 84 1;
#X connect 75 0 85 1;
#X connect 75 0 86 1;
#X connect 76 0 88 2;
#X connect 77 0 88 3;
#X connect 78 0 88 4;
#X connect 79 0 88 5;
#X connect 80 0 88 6;
#X connect 81 0 88 7;
#X connect 82 0 88 8;
#X connect 83 0 88 9;
#X connect 84 0 88 10;
#X connect 85 0 88 11;
#X connect 86 0 88 12;
#X connect 87 0 88 1;
#X connect 88 0 92 0;
#X connect 89 0 90 0;
#X connect 89 1 91 0;
#X connect 89 2 63 0;
#X connect 89 3 90 1;
#X connect 90 0 88 0;
#X connect 91 0 75 0;
#X connect 91 0 60 0;
#X connect 94 0 95 0;
#X connect 95 0 97 0;
#X connect 96 0 98 0;
#X connect 96 1 95 1;
#X connect 97 0 101 0;
#X connect 98 0 94 0;
#X connect 99 0 104 0;
#X connect 100 0 99 0;
#X connect 101 0 110 0;
#X connect 101 1 99 1;
#X connect 101 2 111 0;
#X connect 102 0 112 0;
#X connect 103 0 102 0;
#X connect 103 1 112 1;
#X connect 104 0 103 0;
#X connect 110 0 100 0;
#X connect 111 0 102 1;
#X connect 112 0 89 0;
#X restore 46 138 pd morkovAnalysis;
#X obj 46 89 inlet;
#X floatatom 68 114 5 0 0 0 - - -;
#X obj 232 26 inlet;
#X obj 133 6 inlet;
#X obj 283 272 outlet;
#X obj 338 32 inlet;
#X obj 283 181 f;
#X obj 133 38 t b b;
#X obj 256 144 del 1;
#X floatatom 381 124 5 0 0 0 - - -;
#X obj 338 65 mod 12;
#X obj 323 128 + 60;
#X connect 1 0 11 2;
#X connect 2 0 16 0;
#X connect 3 0 11 1;
#X connect 4 0 11 0;
#X connect 12 0 11 0;
#X connect 12 0 13 0;
#X connect 14 0 1 0;
#X connect 15 0 19 0;
#X connect 17 0 22 0;
#X connect 18 0 2 0;
#X connect 19 0 20 0;
#X connect 19 1 3 0;
#X connect 20 0 18 0;
#X connect 22 0 21 0;
#X connect 22 0 23 0;
#X connect 23 0 18 1;
