#N canvas 156 128 450 449 10;
#X obj 36 4 inlet;
#X obj 35 326 outlet min;
#X obj 157 380 outlet max;
#X obj 54 142 list split 1;
#X obj 54 76 until;
#X obj 54 121 list append;
#X obj 140 140 bang;
#X obj 54 169 t f f;
#X obj 54 273 t f f;
#X obj 35 294 f;
#X obj 187 252 max;
#X obj 177 299 t f f;
#X obj 157 322 f;
#X obj 54 230 min;
#X obj 10 235 t b b;
#X obj 36 46 t b b l f;
#X obj 150 102 t f f;
#X obj 274 115 f;
#X obj 308 116 + 1;
#X obj 54 98 t b b;
#X obj 258 164 f;
#X obj 252 217 t b f f;
#X obj 255 264 !=;
#X obj 187 274 t f f;
#X obj 255 286 sel 1;
#X msg 288 90 1;
#X obj 286 371 outlet argmax;
#X obj 308 171 sel 1;
#X obj 275 137 t f f;
#X connect 0 0 15 0;
#X connect 3 0 7 0;
#X connect 3 1 5 1;
#X connect 3 2 6 0;
#X connect 4 0 19 0;
#X connect 5 0 3 0;
#X connect 6 0 4 1;
#X connect 6 0 25 0;
#X connect 7 0 13 0;
#X connect 7 1 10 0;
#X connect 8 0 9 1;
#X connect 8 1 13 1;
#X connect 9 0 1 0;
#X connect 10 0 23 0;
#X connect 11 0 12 1;
#X connect 11 1 21 0;
#X connect 12 0 2 0;
#X connect 13 0 8 0;
#X connect 14 0 9 0;
#X connect 14 1 12 0;
#X connect 15 0 14 0;
#X connect 15 1 4 0;
#X connect 15 2 5 1;
#X connect 15 3 16 0;
#X connect 16 0 8 0;
#X connect 16 1 11 0;
#X connect 17 0 18 0;
#X connect 17 0 28 0;
#X connect 18 0 17 1;
#X connect 19 0 5 0;
#X connect 19 1 17 0;
#X connect 20 0 26 0;
#X connect 21 1 22 1;
#X connect 21 2 10 1;
#X connect 22 0 24 0;
#X connect 23 0 11 0;
#X connect 23 1 22 0;
#X connect 24 0 20 0;
#X connect 25 0 17 1;
#X connect 27 0 20 0;
#X connect 28 0 27 0;
#X connect 28 1 20 1;
