#N canvas 551 133 581 465 10;
#X obj 62 48 until;
#X obj 62 95 f;
#X obj 93 96 + 1;
#X obj 124 97 % 10;
#X obj 93 128 sel 10;
#X obj 62 15 bng 15 250 50 0 empty empty empty 17 7 0 10 -262144 -1
-1;
#X obj 62 216 until;
#X obj -36 190 print main;
#X obj 62 242 f;
#X obj 93 243 + 1;
#X obj 124 244 % 10;
#X obj 93 275 sel 10;
#X obj 27 315 print internal;
#X obj 62 159 t b f;
#X connect 0 0 1 0;
#X connect 1 0 2 0;
#X connect 1 0 13 0;
#X connect 2 0 3 0;
#X connect 2 0 4 0;
#X connect 3 0 1 1;
#X connect 4 0 0 1;
#X connect 5 0 0 0;
#X connect 6 0 8 0;
#X connect 8 0 9 0;
#X connect 8 0 12 0;
#X connect 9 0 10 0;
#X connect 9 0 11 0;
#X connect 10 0 8 1;
#X connect 11 0 6 1;
#X connect 13 0 6 0;
#X connect 13 1 7 0;
