#N canvas -53 -960 1393 894 10;
#X obj 100 29 until;
#X obj 100 76 f;
#X obj 131 77 + 1;
#X obj 94 -29 bng 15 250 50 0 empty empty empty 17 7 0 10 -262144 -1
-1;
#X obj 100 197 until;
#X obj 100 223 f;
#X obj 131 224 + 1;
#X obj 101 134 t b f;
#X text 130 -6 start nested for loop;
#X obj 162 225 % 12;
#X obj 132 257 sel 12;
#X obj 314 206 iemmatrix/matrix noteWeight.mtx;
#X msg 472 72 read noteWeight.mtx;
#X obj 314 145 pack f f;
#X floatatom 603 162 5 0 0 0 - - -;
#X msg 314 174 element \$2 \$1;
#X obj 444 313 *;
#X obj 443 372 f;
#X obj 476 370 +;
#X obj 442 349 bng 15 250 50 0 empty empty empty 17 7 0 10 -262144
-1 -1;
#X obj 409 400 f;
#X msg 484 323 0;
#X floatatom 409 427 5 0 0 0 - - -;
#X obj 57 255 s noteIndex;
#X obj 128 156 + 1;
#X obj 605 230 tabread temp_hist;
#X obj 129 177 s chordIndex;
#X obj 359 112 r chordIndex;
#X obj 312 82 r noteIndex;
#X obj 603 123 r noteIndex;
#X text 452 406 inner_prod;
#X obj 658 611 list prepend;
#X obj 727 572 list prepend;
#X obj 658 550 t b f;
#X obj 637 656 list;
#X obj 796 543 r clearTheList;
#X obj 190 29 send clearTheList;
#X obj 548 529 r doneWithAll;
#X obj 311 112 + 1;
#X obj 162 78 % 24;
#X obj 131 109 sel 24;
#X obj 195 142 s doneWithAll;
#X floatatom 642 723 5 0 0 0 - - -;
#X obj 637 685 minmax-arg;
#X obj 95 -3 t b b;
#X obj 472 24 loadbang;
#N canvas 0 22 1425 800 chordBufferIndicies 0;
#X obj -127 134 loadbang;
#X msg -127 165 read predict.mtx;
#X obj 60 211 iemmatrix/matrix predict.mtx;
#X obj 61 40 until;
#X obj 60 65 f;
#X obj 91 66 + 1;
#X obj 60 90 + 1;
#X obj 60 116 t f f;
#X msg 60 153 element \$1 1;
#X obj 117 312 select;
#X obj 117 343 f;
#X msg 119 459 element \$1 2;
#X obj 119 420 t f f;
#X obj 106 509 iemmatrix/matrix predict.mtx;
#X obj 154 633 select;
#X obj 154 660 f;
#X obj 155 742 t f f;
#X obj 29 814 iemmatrix/matrix predict.mtx;
#X obj 245 896 select;
#X obj 247 935 f;
#X msg 156 769 element \$1 3;
#X obj 236 1036 list prepend;
#X obj 305 997 list prepend;
#X obj 214 1063 list;
#X obj 247 964 t b f;
#X obj 60 -9 inlet startLoop;
#X text 171 78 loop through all chord profiles;
#X text 145 153 look at the the first chord;
#X text 175 314 is it the same as the first chord in the buffer?;
#X text 221 626 is it the same as the second chord in the buffer?;
#X text 309 843 is it the same as the third chord in the buffer?;
#X text 248 769 if so let's look at chord 3;
#X text 286 936 if so \, we have a match! let's add the index to the
list.;
#X text 209 457 if so let's look at chord 2;
#X text 445 1012 make sure the list is clear;
#X obj 60 13 t b b;
#X obj 130 29 send clearIndiciesList;
#X obj 105 115 send bangResults;
#X obj 140 998 r bangResults;
#X obj 435 1033 r clearIndiciesList;
#X obj 214 1122 outlet indiciesList;
#X obj 12 -9 bng 15 250 50 0 empty empty empty 17 7 0 10 -262144 -1
-1;
#X obj 140 1023 delay 1;
#X obj 150 278 inlet firstChord;
#X obj 187 605 inlet secondChord;
#X obj 281 861 inlet thirdChord;
#X floatatom 162 377 5 0 0 0 - - -;
#X floatatom 199 682 5 0 0 0 - - -;
#X floatatom 314 961 5 0 0 0 - - -;
#X obj 365 966 print element;
#X obj 122 67 % 642;
#X obj 88 90 sel 642;
#X connect 0 0 1 0;
#X connect 1 0 2 0;
#X connect 1 0 13 0;
#X connect 1 0 17 0;
#X connect 2 0 9 0;
#X connect 3 0 4 0;
#X connect 4 0 5 0;
#X connect 4 0 6 0;
#X connect 5 0 50 0;
#X connect 5 0 51 0;
#X connect 6 0 7 0;
#X connect 7 0 8 0;
#X connect 7 1 10 1;
#X connect 8 0 2 0;
#X connect 9 0 10 0;
#X connect 10 0 12 0;
#X connect 10 0 46 0;
#X connect 11 0 13 0;
#X connect 12 0 11 0;
#X connect 12 1 15 1;
#X connect 13 0 14 0;
#X connect 14 0 15 0;
#X connect 15 0 16 0;
#X connect 15 0 47 0;
#X connect 16 0 20 0;
#X connect 16 1 19 1;
#X connect 17 0 18 0;
#X connect 18 0 19 0;
#X connect 19 0 24 0;
#X connect 19 0 48 0;
#X connect 19 0 49 0;
#X connect 20 0 17 0;
#X connect 21 0 23 1;
#X connect 21 0 22 1;
#X connect 22 0 21 1;
#X connect 23 0 40 0;
#X connect 24 0 21 0;
#X connect 24 1 22 0;
#X connect 25 0 35 0;
#X connect 35 0 3 0;
#X connect 35 1 36 0;
#X connect 38 0 42 0;
#X connect 39 0 22 1;
#X connect 39 0 21 1;
#X connect 39 0 23 1;
#X connect 41 0 35 0;
#X connect 42 0 23 0;
#X connect 43 0 9 1;
#X connect 44 0 14 1;
#X connect 45 0 18 1;
#X connect 50 0 4 1;
#X connect 51 0 3 1;
#X connect 51 0 37 0;
#X restore 988 -23 pd chordBufferIndicies;
#X obj 892 -51 r chordIndex;
#X obj 658 517 * 0;
#X obj 1046 -103 inlet;
#X obj 1095 -103 inlet;
#X obj 1141 -102 inlet;
#X text 126 -118 table is currently called temp hist;
#X text 111 -137 notes:;
#X obj 1055 442 send startTheLoop;
#X obj 94 -65 receive startTheLoop;
#X obj 963 -109 inlet bang;
#X obj 701 768 outlet;
#X floatatom 728 676 5 0 0 0 - - -;
#X obj 764 762 print argmax;
#X obj 749 727 del 1;
#X obj 702 731 f;
#X obj 727 703 t f f;
#X obj 824 657 bng 15 250 50 0 empty empty empty 17 7 0 10 -262144
-1 -1;
#N canvas 455 22 494 787 chordProbability_3rd 0;
#X msg 60 172 read predict.mtx;
#X obj 122 353 iemmatrix/matrix predict.mtx;
#X msg 122 319 element \$1 4;
#X obj 226 261 list split 1;
#X obj 226 211 until;
#X obj 226 236 list append;
#X obj 226 184 t b l;
#X obj 327 227 bang;
#X obj 226 156 list;
#X obj 127 552 iemmatrix/matrix predict.mtx;
#X msg 141 522 element \$1 5;
#X obj 141 486 f;
#X obj 139 271 t f f;
#X obj 60 135 loadbang;
#X obj 113 25 inlet chordIndex;
#X obj 264 29 inlet list;
#X text 207 319 check chord index against possible next chords;
#X text 226 523 spit out the probability;
#X msg 53 569 0;
#X obj 118 64 t b f;
#X obj 27 628 outlet;
#X obj 122 422 select;
#X connect 0 0 1 0;
#X connect 0 0 9 0;
#X connect 1 0 21 0;
#X connect 2 0 1 0;
#X connect 3 0 12 0;
#X connect 3 1 5 1;
#X connect 3 2 7 0;
#X connect 4 0 5 0;
#X connect 5 0 3 0;
#X connect 6 0 4 0;
#X connect 6 1 5 1;
#X connect 7 0 4 1;
#X connect 8 0 6 0;
#X connect 9 0 20 0;
#X connect 10 0 9 0;
#X connect 11 0 10 0;
#X connect 12 0 2 0;
#X connect 12 1 11 1;
#X connect 13 0 0 0;
#X connect 14 0 19 0;
#X connect 15 0 8 1;
#X connect 18 0 20 0;
#X connect 19 0 8 0;
#X connect 19 1 21 1;
#X connect 21 0 11 0;
#X restore 832 241 pd chordProbability_3rd;
#X text 1165 -39 dont forget to start the loop;
#N canvas 965 22 475 791 chordProbability_2nd 0;
#X obj 214 269 list split 1;
#X obj 214 219 until;
#X obj 214 244 list append;
#X obj 214 192 t b l;
#X obj 315 235 bang;
#X obj 214 164 list;
#X obj 110 471 f;
#X obj 108 256 t f f;
#X obj 29 120 loadbang;
#X obj 98 32 inlet chordIndex;
#X obj 233 14 inlet list;
#X text 176 304 check chord index against possible next chords;
#X text 195 508 spit out the probability;
#X msg 29 157 read predict2gram.mtx;
#X obj 91 338 iemmatrix/matrix predict2gram.mtx;
#X obj 96 537 iemmatrix/matrix predict2gram.mtx;
#X msg 91 304 element \$1 3;
#X msg 110 507 element \$1 4;
#X obj 181 406 select;
#X obj 108 81 t b f;
#X obj 98 612 outlet;
#X connect 0 0 7 0;
#X connect 0 1 2 1;
#X connect 0 2 4 0;
#X connect 1 0 2 0;
#X connect 2 0 0 0;
#X connect 3 0 1 0;
#X connect 3 1 2 1;
#X connect 4 0 1 1;
#X connect 5 0 3 0;
#X connect 6 0 17 0;
#X connect 7 0 16 0;
#X connect 7 1 6 1;
#X connect 8 0 13 0;
#X connect 9 0 19 0;
#X connect 10 0 5 1;
#X connect 13 0 14 0;
#X connect 13 0 15 0;
#X connect 14 0 18 0;
#X connect 15 0 20 0;
#X connect 16 0 14 0;
#X connect 17 0 15 0;
#X connect 18 0 6 0;
#X connect 19 0 5 0;
#X connect 19 1 18 1;
#X restore 1108 253 pd chordProbability_2nd;
#X obj 1146 174 chordBuffer_2nd;
#X obj 893 90 spigot;
#X obj 1101 131 spigot;
#X obj 1146 203 t b l;
#X obj 832 288 print chordprob-3rd;
#X obj 1108 289 print chordprob-2nd;
#X obj 1044 3 print listbeforechordprob3;
#X obj 969 -82 t b b;
#X obj 988 3 t b l l;
#X msg 695 514 0;
#X obj 1027 31 list length;
#X obj 1117 68 == 0;
#X obj 928 64 > 0;
#X msg 851 -100 1 4 9 3;
#X obj 916 -88 bng 15 250 50 0 empty empty empty 17 7 0 10 -262144
-1 -1;
#X obj 1154 122 sel 1;
#X obj 1117 96 t f f;
#X obj 1206 141 bng 15 250 50 0 empty empty empty 17 7 0 10 -262144
-1 -1;
#X obj 1160 66 tgl 15 0 empty empty empty 17 7 0 10 -262144 -1 -1 1
1;
#X obj 1117 38 print listlength;
#N canvas 2 -1015 1265 929 sample-distribution 1;
#X obj 53 -84 inlet;
#X obj 53 11 random 100;
#X obj 426 607 tabwrite distribution;
#X obj 53 129 tabread distribution;
#X text 60 105 value is output is chord index;
#X obj 174 -278 inlet;
#X obj 650 -29 t b l;
#X obj 650 101 list append;
#X obj 650 124 list split 1;
#X obj 499 218 f;
#X obj 527 219 + 1;
#X obj 611 430 until;
#X obj 554 219 % 24;
#X obj 613 46 t b b b;
#X obj 611 456 f;
#X obj 639 457 + 1;
#X obj 714 508 sel;
#X obj 426 571 f;
#X obj 1000 128 sel 0;
#X obj 683 196 > 0;
#X obj 650 264 spigot;
#X obj 510 493 t b f;
#X msg 252 343 0;
#X obj 714 538 bang;
#X obj 729 391 - 1;
#X obj 702 362 t f f;
#X obj 702 330 + 0;
#X obj 650 306 t b f;
#X obj 251 316 loadbang;
#X msg 593 220 0;
#X obj 650 170 t f f;
#X obj 683 221 sel 0 1;
#X msg 715 263 1;
#X msg 683 242 0;
#X obj 771 280 del 1;
#X obj 714 574 del 1;
#X obj 53 210 outlet;
#X obj 53 -20 del 10;
#X obj 89 40 print index;
#X obj 266 -157 list append;
#X obj 266 -134 list split 1;
#X obj 266 -187 until;
#X obj 356 -135 bang;
#X obj 266 -107 +;
#X obj 304 -107 f;
#X text 392 -135 sum;
#X obj 192 -77 list;
#X obj 266 -213 t b l;
#X obj 185 -237 t l l;
#X obj 234 0 list append;
#X obj 234 23 list split 1;
#X obj 234 -30 until;
#X obj 234 -56 t b l;
#X obj 234 55 /;
#N canvas 595 268 535 378 re-list 0;
#X obj 49 121 list prepend;
#X obj 118 82 list prepend;
#X obj 49 60 t b f;
#X obj 28 166 list;
#X obj 49 24 inlet;
#X obj -6 114 inlet;
#X obj 136 242 outlet;
#X obj 92 199 t b b l;
#X connect 0 0 1 1;
#X connect 0 0 3 1;
#X connect 1 0 0 1;
#X connect 2 0 0 0;
#X connect 2 1 1 0;
#X connect 3 0 7 0;
#X connect 4 0 2 0;
#X connect 5 0 3 0;
#X connect 7 0 0 1;
#X connect 7 1 1 1;
#X connect 7 2 6 0;
#X restore 357 81 pd re-list;
#X obj 357 106 print new_list;
#X obj 328 24 bang;
#X obj 650 147 * 100;
#X obj 1044 -86 table distribution 100;
#X obj 666 457 % 100;
#X obj 649 286 int;
#X msg 355 -105 0;
#X obj 538 248 sel 24;
#X obj 53 181 + 1;
#X obj 248 -242 print before_norm;
#X obj 1083 -243 r \$0-play;
#X obj 1084 -209 sel 0;
#X obj 1088 -147 s \$0-reset;
#X obj 345 -42 r \$0-reset;
#X obj 345 -16 bang;
#X obj 523 151 r \$0-reset;
#X msg 525 175 0;
#X obj 744 71 r \$0-reset;
#X obj 742 98 bang;
#X obj 764 433 r \$0-reset;
#X msg 760 461 0;
#X connect 0 0 37 0;
#X connect 1 0 3 0;
#X connect 1 0 38 0;
#X connect 3 0 63 0;
#X connect 5 0 48 0;
#X connect 6 0 13 0;
#X connect 6 1 7 1;
#X connect 7 0 8 0;
#X connect 8 0 57 0;
#X connect 8 1 7 1;
#X connect 9 0 10 0;
#X connect 9 0 17 1;
#X connect 10 0 12 0;
#X connect 10 0 62 0;
#X connect 11 0 14 0;
#X connect 12 0 9 1;
#X connect 13 1 7 0;
#X connect 13 2 9 0;
#X connect 14 0 15 0;
#X connect 14 0 16 0;
#X connect 14 0 21 0;
#X connect 15 0 59 0;
#X connect 16 0 23 0;
#X connect 17 0 2 0;
#X connect 19 0 31 0;
#X connect 20 0 60 0;
#X connect 21 0 17 0;
#X connect 21 1 2 1;
#X connect 22 0 14 1;
#X connect 22 0 26 1;
#X connect 23 0 11 1;
#X connect 23 0 35 0;
#X connect 24 0 16 1;
#X connect 25 0 26 1;
#X connect 25 1 24 0;
#X connect 26 0 25 0;
#X connect 27 0 11 0;
#X connect 27 1 26 0;
#X connect 28 0 22 0;
#X connect 29 0 9 1;
#X connect 29 0 26 1;
#X connect 29 0 14 1;
#X connect 30 0 20 0;
#X connect 30 1 19 0;
#X connect 31 0 33 0;
#X connect 31 0 34 0;
#X connect 31 1 32 0;
#X connect 32 0 20 1;
#X connect 33 0 20 1;
#X connect 34 0 13 0;
#X connect 35 0 13 0;
#X connect 37 0 1 0;
#X connect 39 0 40 0;
#X connect 40 0 43 0;
#X connect 40 1 39 1;
#X connect 40 2 42 0;
#X connect 41 0 39 0;
#X connect 42 0 41 1;
#X connect 42 0 46 0;
#X connect 42 0 61 0;
#X connect 43 0 44 0;
#X connect 43 0 53 1;
#X connect 44 0 43 1;
#X connect 46 0 52 0;
#X connect 47 0 41 0;
#X connect 47 1 39 1;
#X connect 48 0 47 0;
#X connect 48 1 46 1;
#X connect 48 1 64 0;
#X connect 49 0 50 0;
#X connect 50 0 53 0;
#X connect 50 1 49 1;
#X connect 50 2 56 0;
#X connect 51 0 49 0;
#X connect 52 0 51 0;
#X connect 52 1 49 1;
#X connect 53 0 54 1;
#X connect 54 0 55 0;
#X connect 54 0 6 0;
#X connect 56 0 51 1;
#X connect 56 0 54 0;
#X connect 57 0 30 0;
#X connect 59 0 14 1;
#X connect 60 0 27 0;
#X connect 61 0 44 1;
#X connect 61 0 43 1;
#X connect 62 0 22 0;
#X connect 62 0 29 0;
#X connect 62 0 37 0;
#X connect 63 0 36 0;
#X connect 65 0 66 0;
#X connect 66 0 67 0;
#X connect 68 0 69 0;
#X connect 69 0 49 1;
#X connect 69 0 39 1;
#X connect 69 0 54 0;
#X connect 70 0 71 0;
#X connect 71 0 9 1;
#X connect 72 0 73 0;
#X connect 73 0 7 1;
#X connect 74 0 75 0;
#X connect 75 0 14 1;
#X connect 75 0 26 1;
#X restore 471 641 pd sample-distribution;
#X obj 1197 553 loadbang;
#X msg 1197 593 \; pd dsp 1;
#X obj 480 749 outlet;
#X obj 493 590 t b b b;
#X obj 548 562 delay 1;
#X connect 0 0 1 0;
#X connect 1 0 2 0;
#X connect 1 0 7 0;
#X connect 2 0 39 0;
#X connect 2 0 40 0;
#X connect 3 0 44 0;
#X connect 4 0 5 0;
#X connect 5 0 6 0;
#X connect 5 0 23 0;
#X connect 6 0 9 0;
#X connect 6 0 10 0;
#X connect 7 0 4 0;
#X connect 7 1 24 0;
#X connect 9 0 5 1;
#X connect 10 0 4 1;
#X connect 10 0 20 0;
#X connect 11 0 16 0;
#X connect 12 0 11 0;
#X connect 13 0 15 0;
#X connect 14 0 25 0;
#X connect 15 0 11 0;
#X connect 16 0 18 0;
#X connect 16 0 19 0;
#X connect 17 0 18 1;
#X connect 17 0 20 1;
#X connect 18 0 17 1;
#X connect 19 0 17 0;
#X connect 20 0 21 0;
#X connect 20 0 22 0;
#X connect 21 0 18 0;
#X connect 21 0 18 1;
#X connect 22 0 48 0;
#X connect 24 0 26 0;
#X connect 25 0 16 1;
#X connect 27 0 13 1;
#X connect 28 0 38 0;
#X connect 29 0 14 0;
#X connect 31 0 32 1;
#X connect 31 0 34 1;
#X connect 32 0 31 1;
#X connect 33 0 31 0;
#X connect 33 1 32 0;
#X connect 34 0 43 0;
#X connect 35 0 32 1;
#X connect 35 0 31 1;
#X connect 37 0 92 0;
#X connect 38 0 13 0;
#X connect 39 0 1 1;
#X connect 40 0 0 1;
#X connect 40 0 41 0;
#X connect 43 1 42 0;
#X connect 43 2 58 0;
#X connect 43 2 62 0;
#X connect 43 2 63 0;
#X connect 44 0 0 0;
#X connect 44 1 36 0;
#X connect 45 0 12 0;
#X connect 46 0 75 0;
#X connect 47 0 68 0;
#X connect 47 0 69 0;
#X connect 48 0 33 0;
#X connect 48 0 76 0;
#X connect 49 0 46 1;
#X connect 50 0 46 2;
#X connect 50 0 67 1;
#X connect 51 0 46 3;
#X connect 51 0 67 2;
#X connect 55 0 3 0;
#X connect 56 0 74 0;
#X connect 60 0 61 0;
#X connect 61 0 57 0;
#X connect 61 0 59 0;
#X connect 62 0 60 0;
#X connect 62 1 61 1;
#X connect 63 0 34 1;
#X connect 64 0 48 1;
#X connect 64 0 71 0;
#X connect 66 0 48 1;
#X connect 66 0 72 0;
#X connect 67 0 70 0;
#X connect 68 0 64 0;
#X connect 69 0 66 0;
#X connect 70 0 54 0;
#X connect 70 1 66 1;
#X connect 74 0 46 0;
#X connect 75 0 54 0;
#X connect 75 1 64 1;
#X connect 75 1 66 1;
#X connect 75 2 73 0;
#X connect 75 2 77 0;
#X connect 76 0 48 1;
#X connect 77 0 78 0;
#X connect 77 0 79 0;
#X connect 78 0 83 0;
#X connect 78 0 85 0;
#X connect 79 0 68 1;
#X connect 80 0 75 0;
#X connect 81 0 75 0;
#X connect 82 0 67 0;
#X connect 82 0 84 0;
#X connect 83 0 69 1;
#X connect 83 1 82 0;
#X connect 87 0 90 0;
#X connect 88 0 89 0;
#X connect 91 2 34 0;
#X connect 92 0 34 0;
