#N canvas -44 -970 1418 861 10;
#X obj 100 29 until;
#X obj 100 76 f;
#X obj 131 77 + 1;
#X obj 94 -29 bng 15 250 50 0 empty empty empty 17 7 0 10 -262144 -1
-1;
#X obj 100 197 until;
#X obj 100 223 f;
#X obj 131 224 + 1;
#X obj 101 134 t b f;
#X text 130 -6 start nested for loop;
#X obj 162 225 % 12;
#X obj 132 257 sel 12;
#X obj 314 206 iemmatrix/matrix noteWeight.mtx;
#X msg 438 174 read noteWeight.mtx;
#X obj 314 145 pack f f;
#X floatatom 603 162 5 0 0 0 - - -;
#X msg 314 174 element \$2 \$1;
#X obj 444 313 *;
#X obj 443 372 f;
#X obj 476 370 +;
#X obj 442 349 bng 15 250 50 0 empty empty empty 17 7 0 10 -262144
-1 -1;
#X obj 409 400 f;
#X msg 484 323 0;
#X floatatom 409 427 5 0 0 0 - - -;
#X obj 57 255 s noteIndex;
#X obj 128 156 + 1;
#X obj 605 230 tabread temp_hist;
#X obj 129 177 s chordIndex;
#X obj 359 112 r chordIndex;
#X obj 312 82 r noteIndex;
#X obj 603 123 r noteIndex;
#X text 452 406 inner_prod;
#X obj 658 611 list prepend;
#X obj 727 572 list prepend;
#X obj 658 550 t b f;
#X obj 637 656 list;
#X obj 552 602 delay 1;
#X obj 796 543 r clearTheList;
#X obj 190 29 send clearTheList;
#X obj 552 569 r doneWithAll;
#X obj 311 112 + 1;
#X obj 162 78 % 24;
#X obj 131 109 sel 24;
#X obj 195 142 s doneWithAll;
#X floatatom 642 723 5 0 0 0 - - -;
#X obj 637 685 minmax-arg;
#X obj 95 -3 t b b;
#X obj 548 -78 loadbang;
#N canvas 68 22 858 875 chordBufferIndicies 0;
#X obj -127 134 loadbang;
#X msg -127 165 read predict.mtx;
#X obj 60 211 iemmatrix/matrix predict.mtx;
#X obj 61 40 until;
#X obj 60 65 f;
#X obj 91 66 + 1;
#X obj 122 67 % 188;
#X obj 88 90 sel 188;
#X obj 60 90 + 1;
#X obj 60 116 t f f;
#X msg 60 153 element \$1 1;
#X obj 117 312 select;
#X obj 117 343 f;
#X msg 119 459 element \$1 2;
#X obj 119 420 t f f;
#X obj 106 509 iemmatrix/matrix predict.mtx;
#X obj 154 633 select;
#X obj 154 660 f;
#X obj 155 742 t f f;
#X obj 29 814 iemmatrix/matrix predict.mtx;
#X obj 245 896 select;
#X obj 247 935 f;
#X msg 156 769 element \$1 3;
#X obj 236 1036 list prepend;
#X obj 305 997 list prepend;
#X obj 214 1063 list;
#X obj 247 964 t b f;
#X obj 60 -9 inlet startLoop;
#X text 171 78 loop through all chord profiles;
#X text 145 153 look at the the first chord;
#X text 175 314 is it the same as the first chord in the buffer?;
#X text 221 626 is it the same as the second chord in the buffer?;
#X text 309 843 is it the same as the third chord in the buffer?;
#X text 248 769 if so let's look at chord 3;
#X text 286 936 if so \, we have a match! let's add the index to the
list.;
#X text 209 457 if so let's look at chord 2;
#X text 445 1012 make sure the list is clear;
#X obj 60 13 t b b;
#X obj 130 29 send clearIndiciesList;
#X obj 105 115 send bangResults;
#X obj 140 998 r bangResults;
#X obj 437 1033 r clearIndiciesList;
#X obj 214 1122 outlet indiciesList;
#X obj 12 -9 bng 15 250 50 0 empty empty empty 17 7 0 10 -262144 -1
-1;
#X obj 140 1023 delay 1;
#X obj 150 278 inlet firstChord;
#X obj 187 605 inlet secondChord;
#X obj 281 861 inlet thirdChord;
#X floatatom 162 377 5 0 0 0 - - -;
#X floatatom 199 682 5 0 0 0 - - -;
#X floatatom 314 961 5 0 0 0 - - -;
#X obj 274 1090 print listbefore;
#X obj 365 966 print element;
#X connect 0 0 1 0;
#X connect 1 0 2 0;
#X connect 1 0 15 0;
#X connect 1 0 19 0;
#X connect 2 0 11 0;
#X connect 3 0 4 0;
#X connect 4 0 5 0;
#X connect 4 0 8 0;
#X connect 5 0 6 0;
#X connect 5 0 7 0;
#X connect 6 0 4 1;
#X connect 7 0 3 1;
#X connect 7 0 39 0;
#X connect 8 0 9 0;
#X connect 9 0 10 0;
#X connect 9 1 12 1;
#X connect 10 0 2 0;
#X connect 11 0 12 0;
#X connect 12 0 14 0;
#X connect 12 0 48 0;
#X connect 13 0 15 0;
#X connect 14 0 13 0;
#X connect 14 1 17 1;
#X connect 15 0 16 0;
#X connect 16 0 17 0;
#X connect 17 0 18 0;
#X connect 17 0 49 0;
#X connect 18 0 22 0;
#X connect 18 1 21 1;
#X connect 19 0 20 0;
#X connect 20 0 21 0;
#X connect 21 0 26 0;
#X connect 21 0 50 0;
#X connect 21 0 52 0;
#X connect 22 0 19 0;
#X connect 23 0 25 1;
#X connect 23 0 24 1;
#X connect 24 0 23 1;
#X connect 25 0 42 0;
#X connect 25 0 51 0;
#X connect 26 0 23 0;
#X connect 26 1 24 0;
#X connect 27 0 37 0;
#X connect 37 0 3 0;
#X connect 37 1 38 0;
#X connect 40 0 44 0;
#X connect 41 0 24 1;
#X connect 41 0 23 1;
#X connect 43 0 37 0;
#X connect 44 0 25 0;
#X connect 45 0 11 1;
#X connect 46 0 16 1;
#X connect 47 0 20 1;
#X restore 1013 -30 pd chordBufferIndicies;
#X msg 809 104 read predict.mtx;
#X obj 871 285 iemmatrix/matrix predict.mtx;
#X msg 871 251 element \$1 4;
#X obj 994 216 list split 1;
#X obj 994 166 until;
#X obj 994 191 list append;
#X obj 994 139 t b l;
#X obj 1095 182 bang;
#X obj 994 111 list;
#X obj 876 484 iemmatrix/matrix predict.mtx;
#X msg 890 454 element \$1 5;
#X obj 890 418 f;
#X obj 920 -2 r chordIndex;
#X obj 908 313 r chordIndex;
#X obj 888 203 t f f;
#X obj 658 517 * 0;
#X msg 829 433 0;
#X obj 1046 -103 inlet;
#X obj 1095 -103 inlet;
#X obj 1141 -102 inlet;
#X text 126 -118 table is currently called temp hist;
#X text 111 -137 notes:;
#X obj 1086 -1 send startTheLoop;
#X obj 94 -65 receive startTheLoop;
#X obj 975 -104 inlet bang;
#X obj 701 768 outlet;
#X floatatom 728 676 5 0 0 0 - - -;
#X obj 764 762 print argmax;
#X obj 749 727 del 1;
#X obj 702 731 f;
#X obj 727 703 t f f;
#X obj 871 315 ==;
#X obj 871 383 sel 0 1;
#X obj 871 353 change;
#X obj 824 657 bng 15 250 50 0 empty empty empty 17 7 0 10 -262144
-1 -1;
#X obj 829 459 bng 15 250 50 0 empty empty empty 17 7 0 10 -262144
-1 -1;
#X obj 907 529 bng 15 250 50 0 empty empty empty 17 7 0 10 -262144
-1 -1;
#X obj 499 708 print listaftermult;
#X obj 1067 48 list length;
#X obj 1034 93 spigot;
#X obj 1085 100 sel 0;
#X obj 1067 71 > 0;
#X floatatom 1110 73 5 0 0 0 - - -;
#X msg 1082 133 1;
#X obj 1013 -1 t b l l;
#N canvas 950 22 494 787 chordProbability_3rd 0;
#X msg 60 172 read predict.mtx;
#X obj 122 353 iemmatrix/matrix predict.mtx;
#X msg 122 319 element \$1 4;
#X obj 245 284 list split 1;
#X obj 245 234 until;
#X obj 245 259 list append;
#X obj 245 207 t b l;
#X obj 346 250 bang;
#X obj 245 179 list;
#X obj 127 552 iemmatrix/matrix predict.mtx;
#X msg 141 522 element \$1 5;
#X obj 141 486 f;
#X obj 139 271 t f f;
#X obj 122 383 ==;
#X obj 122 451 sel 0 1;
#X obj 122 421 change;
#X obj 60 135 loadbang;
#X obj 134 90 inlet chordIndex;
#X obj 264 29 inlet list;
#X obj 27 627 outlet noMatch;
#X obj 129 627 outlet Match;
#X text 207 319 check chord index against possible next chords;
#X text 226 523 spit out the probability;
#X connect 0 0 1 0;
#X connect 0 0 9 0;
#X connect 1 0 13 0;
#X connect 2 0 1 0;
#X connect 3 0 12 0;
#X connect 3 1 5 1;
#X connect 3 2 7 0;
#X connect 4 0 5 0;
#X connect 5 0 3 0;
#X connect 6 0 4 0;
#X connect 6 1 5 1;
#X connect 7 0 4 1;
#X connect 8 0 6 0;
#X connect 9 0 20 0;
#X connect 10 0 9 0;
#X connect 11 0 10 0;
#X connect 12 0 2 0;
#X connect 12 1 11 1;
#X connect 13 0 15 0;
#X connect 14 0 19 0;
#X connect 14 1 11 0;
#X connect 15 0 14 0;
#X connect 16 0 0 0;
#X connect 17 0 8 0;
#X connect 17 0 13 1;
#X connect 18 0 8 1;
#X restore 1124 279 pd chordProbability_3rd;
#X text 1165 -39 dont forget to start the loop;
#N canvas 1445 22 475 791 chordProbability_2nd 0;
#X obj 214 269 list split 1;
#X obj 214 219 until;
#X obj 214 244 list append;
#X obj 214 192 t b l;
#X obj 315 235 bang;
#X obj 214 164 list;
#X obj 110 471 f;
#X obj 108 256 t f f;
#X obj 91 368 ==;
#X obj 91 436 sel 0 1;
#X obj 91 406 change;
#X obj 29 120 loadbang;
#X obj 103 75 inlet chordIndex;
#X obj 233 14 inlet list;
#X obj -4 612 outlet noMatch;
#X obj 98 612 outlet Match;
#X text 176 304 check chord index against possible next chords;
#X text 195 508 spit out the probability;
#X msg 29 157 read predict2gram.mtx;
#X obj 91 338 iemmatrix/matrix predict2gram.mtx;
#X obj 96 537 iemmatrix/matrix predict2gram.mtx;
#X msg 91 304 element \$1 3;
#X msg 110 507 element \$1 4;
#X connect 0 0 7 0;
#X connect 0 1 2 1;
#X connect 0 2 4 0;
#X connect 1 0 2 0;
#X connect 2 0 0 0;
#X connect 3 0 1 0;
#X connect 3 1 2 1;
#X connect 4 0 1 1;
#X connect 5 0 3 0;
#X connect 6 0 22 0;
#X connect 7 0 21 0;
#X connect 7 1 6 1;
#X connect 8 0 10 0;
#X connect 9 0 14 0;
#X connect 9 1 6 0;
#X connect 10 0 9 0;
#X connect 11 0 18 0;
#X connect 12 0 5 0;
#X connect 12 0 8 1;
#X connect 13 0 5 1;
#X connect 18 0 19 0;
#X connect 18 0 20 0;
#X connect 19 0 8 0;
#X connect 20 0 15 0;
#X connect 21 0 19 0;
#X connect 22 0 20 0;
#X restore 1122 334 pd chordProbability_2nd;
#X obj 1053 388 chordBuffer_2nd;
#X connect 0 0 1 0;
#X connect 1 0 2 0;
#X connect 1 0 7 0;
#X connect 2 0 40 0;
#X connect 2 0 41 0;
#X connect 3 0 45 0;
#X connect 4 0 5 0;
#X connect 5 0 6 0;
#X connect 5 0 23 0;
#X connect 6 0 9 0;
#X connect 6 0 10 0;
#X connect 7 0 4 0;
#X connect 7 1 24 0;
#X connect 9 0 5 1;
#X connect 10 0 4 1;
#X connect 10 0 20 0;
#X connect 11 0 16 0;
#X connect 12 0 11 0;
#X connect 13 0 15 0;
#X connect 14 0 25 0;
#X connect 15 0 11 0;
#X connect 16 0 18 0;
#X connect 16 0 19 0;
#X connect 17 0 18 1;
#X connect 17 0 20 1;
#X connect 18 0 17 1;
#X connect 19 0 17 0;
#X connect 20 0 21 0;
#X connect 20 0 22 0;
#X connect 21 0 18 0;
#X connect 21 0 18 1;
#X connect 22 0 63 0;
#X connect 24 0 26 0;
#X connect 25 0 16 1;
#X connect 27 0 13 1;
#X connect 28 0 39 0;
#X connect 29 0 14 0;
#X connect 31 0 34 1;
#X connect 31 0 32 1;
#X connect 32 0 31 1;
#X connect 33 0 31 0;
#X connect 33 1 32 0;
#X connect 34 0 44 0;
#X connect 34 0 85 0;
#X connect 35 0 34 0;
#X connect 36 0 32 1;
#X connect 36 0 31 1;
#X connect 38 0 35 0;
#X connect 39 0 13 0;
#X connect 40 0 1 1;
#X connect 41 0 0 1;
#X connect 41 0 42 0;
#X connect 44 1 43 0;
#X connect 44 2 74 0;
#X connect 44 2 78 0;
#X connect 44 2 82 0;
#X connect 45 0 0 0;
#X connect 45 1 37 0;
#X connect 46 0 12 0;
#X connect 46 0 48 0;
#X connect 47 0 92 0;
#X connect 48 0 49 0;
#X connect 48 0 57 0;
#X connect 49 0 79 0;
#X connect 50 0 49 0;
#X connect 51 0 62 0;
#X connect 51 1 53 1;
#X connect 51 2 55 0;
#X connect 52 0 53 0;
#X connect 53 0 51 0;
#X connect 54 0 52 0;
#X connect 54 1 53 1;
#X connect 55 0 52 1;
#X connect 56 0 54 0;
#X connect 57 0 63 1;
#X connect 57 0 84 0;
#X connect 58 0 57 0;
#X connect 59 0 58 0;
#X connect 60 0 56 0;
#X connect 61 0 79 1;
#X connect 62 0 50 0;
#X connect 62 1 59 1;
#X connect 63 0 33 0;
#X connect 64 0 63 1;
#X connect 64 0 83 0;
#X connect 65 0 47 1;
#X connect 66 0 47 2;
#X connect 67 0 47 3;
#X connect 71 0 3 0;
#X connect 72 0 47 0;
#X connect 76 0 77 0;
#X connect 77 0 73 0;
#X connect 77 0 75 0;
#X connect 78 0 76 0;
#X connect 78 1 77 1;
#X connect 79 0 81 0;
#X connect 80 0 64 0;
#X connect 80 1 59 0;
#X connect 81 0 80 0;
#X connect 86 0 89 0;
#X connect 86 0 90 0;
#X connect 88 0 91 0;
#X connect 89 0 87 1;
#X connect 89 0 88 0;
#X connect 92 0 70 0;
#X connect 92 1 86 0;
#X connect 92 2 56 1;
